<?xml version="1.0" encoding="UTF-8"?>
<!DOCTYPE svg PUBLIC "-//W3C//DTD SVG 1.1//EN" "http://www.w3.org/Graphics/SVG/1.1/DTD/svg11.dtd">
<svg xmlns="http://www.w3.org/2000/svg" version="1.1" width="570px" height="570px" style="shape-rendering:geometricPrecision; text-rendering:geometricPrecision; image-rendering:optimizeQuality; fill-rule:evenodd; clip-rule:evenodd" xmlns:xlink="http://www.w3.org/1999/xlink">
<g><path style="opacity:0.924" fill="#0f0a08" d="M 432.5,204.5 C 432.842,203.662 433.508,203.328 434.5,203.5C 436.441,205.011 436.941,207.011 436,209.5C 434.988,212.202 433.488,214.535 431.5,216.5C 430.71,217.794 429.71,218.961 428.5,220C 408.72,232.862 387.053,240.029 363.5,241.5C 355.101,243.329 346.934,242.663 339,239.5C 338.228,239.645 337.561,239.978 337,240.5C 336.784,242.384 336.117,244.051 335,245.5C 337.021,226.083 336.855,206.75 334.5,187.5C 333.662,177.34 332.662,167.34 331.5,157.5C 331.029,150.033 329.862,142.7 328,135.5C 326.32,129.453 323.153,124.453 318.5,120.5C 313.535,115.725 307.535,113.059 300.5,112.5C 294.855,111.034 289.188,111.368 283.5,113.5C 284.544,115.768 284.711,118.101 284,120.5C 282.62,115.558 281.454,110.558 280.5,105.5C 279.584,100.332 278.584,95.1655 277.5,90C 278.061,86.0184 279.061,82.185 280.5,78.5C 289.947,68.096 300.947,59.596 313.5,53C 317,50.6658 320,47.8325 322.5,44.5C 323.942,39.4652 323.776,34.4652 322,29.5C 316.301,21.8967 308.801,18.5634 299.5,19.5C 297.614,20.3606 295.78,21.3606 294,22.5C 289.7,33.1035 284.366,43.1035 278,52.5C 274.817,56.5378 270.984,59.5378 266.5,61.5C 253.265,62.9428 240.932,60.1095 229.5,53C 223.725,46.4201 216.725,43.9201 208.5,45.5C 198.845,49.6845 195.012,57.0179 197,67.5C 198.274,70.3911 199.774,73.0578 201.5,75.5C 202.058,76.7899 203.058,77.6232 204.5,78C 219.193,79.6919 233.859,81.5252 248.5,83.5C 248.5,84.1667 248.833,84.5 249.5,84.5C 251.019,85.4098 252.685,86.2432 254.5,87C 261.648,94.13 265.981,102.63 267.5,112.5C 268.331,116.476 268.497,120.476 268,124.5C 267.239,121.947 266.406,119.447 265.5,117C 263.225,116.595 261.225,117.095 259.5,118.5C 256.759,118.707 254.426,119.707 252.5,121.5C 240.234,126.672 233.9,136.005 233.5,149.5C 236.214,166.57 239.38,183.57 243,200.5C 243.945,209.165 244.778,217.831 245.5,226.5C 245.83,233.532 245.497,240.532 244.5,247.5C 243.686,245.234 243.186,242.9 243,240.5C 239.855,243.304 236.688,245.97 233.5,248.5C 230.023,250.258 226.357,250.758 222.5,250C 209.831,247.728 198.164,243.228 187.5,236.5C 188.492,236.672 189.158,236.338 189.5,235.5C 200.892,241.686 213.059,245.352 226,246.5C 228.96,246.557 231.793,246.057 234.5,245C 237.052,242.147 239.885,239.647 243,237.5C 243.486,229.809 243.152,222.142 242,214.5C 239.098,194.423 235.765,174.423 232,154.5C 229.77,136.793 236.937,124.626 253.5,118C 256.949,117.138 260.283,115.972 263.5,114.5C 264.028,104.598 260.694,96.0984 253.5,89C 251.028,87.5399 248.361,86.5399 245.5,86C 233.879,84.2558 222.213,82.9224 210.5,82C 204.974,81.6579 200.807,79.1579 198,74.5C 189.098,57.3761 193.931,46.7095 212.5,42.5C 215.226,42.6816 217.893,43.1816 220.5,44C 230.527,52.0125 241.86,57.3458 254.5,60C 262.289,61.6883 268.789,59.5216 274,53.5C 281.473,44.2262 287.139,33.8929 291,22.5C 295.618,16.9473 301.451,15.114 308.5,17C 322.997,21.1665 328.83,30.6665 326,45.5C 315.778,53.388 305.278,60.888 294.5,68C 290.701,70.7969 287.201,73.9636 284,77.5C 281.823,81.0308 280.656,84.8641 280.5,89C 281.226,96.3339 282.559,103.501 284.5,110.5C 310.781,105.562 326.614,116.229 332,142.5C 336.736,173.628 339.236,204.962 339.5,236.5C 345.705,240.185 352.371,241.352 359.5,240C 376.92,237.65 393.92,233.65 410.5,228C 419.507,224.317 426.673,218.484 432,210.5C 432.909,208.342 433.075,206.342 432.5,204.5 Z"/></g>
<g><path style="opacity:1" fill="#c5a188" d="M 299.5,19.5 C 308.801,18.5634 316.301,21.8967 322,29.5C 323.776,34.4652 323.942,39.4652 322.5,44.5C 320.097,44.552 317.764,44.2186 315.5,43.5C 306.046,40.0539 300.713,33.3872 299.5,23.5C 299.5,22.1667 299.5,20.8333 299.5,19.5 Z"/></g>
<g><path style="opacity:1" fill="#2b211b" d="M 299.5,23.5 C 300.713,33.3872 306.046,40.0539 315.5,43.5C 316.614,45.3531 315.948,45.8531 313.5,45C 306.667,42.1667 301.833,37.3333 299,30.5C 298.204,27.9615 298.371,25.6282 299.5,23.5 Z"/></g>
<g><path style="opacity:1" fill="#ab7d61" d="M 299.5,19.5 C 299.5,20.8333 299.5,22.1667 299.5,23.5C 298.371,25.6282 298.204,27.9615 299,30.5C 301.833,37.3333 306.667,42.1667 313.5,45C 315.948,45.8531 316.614,45.3531 315.5,43.5C 317.764,44.2186 320.097,44.552 322.5,44.5C 320,47.8325 317,50.6658 313.5,53C 300.947,59.596 289.947,68.096 280.5,78.5C 278.801,78.3398 277.134,78.5065 275.5,79C 267.673,83.978 259.006,85.8114 249.5,84.5C 248.833,84.5 248.5,84.1667 248.5,83.5C 254.29,83.9038 259.956,83.4038 265.5,82C 267.2,78.98 268.866,75.98 270.5,73C 269.426,72.2613 268.759,71.2613 268.5,70C 269.406,67.2094 270.073,64.3761 270.5,61.5C 269.167,61.5 267.833,61.5 266.5,61.5C 270.984,59.5378 274.817,56.5378 278,52.5C 284.366,43.1035 289.7,33.1035 294,22.5C 295.78,21.3606 297.614,20.3606 299.5,19.5 Z"/></g>
<g><path style="opacity:1" fill="#28201b" d="M 216.5,51.5 C 214.833,50.5 213.5,49.1667 212.5,47.5C 212.435,47.0618 212.601,46.7284 213,46.5C 214.802,47.7893 215.969,49.4559 216.5,51.5 Z"/></g>
<g><path style="opacity:1" fill="#c09e86" d="M 208.5,45.5 C 210.062,45.7329 211.395,46.3995 212.5,47.5C 213.5,49.1667 214.833,50.5 216.5,51.5C 219.216,60.5689 216.883,68.0689 209.5,74C 208.552,74.4828 207.552,74.6495 206.5,74.5C 204.958,75.3007 203.292,75.634 201.5,75.5C 199.774,73.0578 198.274,70.3911 197,67.5C 195.012,57.0179 198.845,49.6845 208.5,45.5 Z"/></g>
<g><path style="opacity:1" fill="#b08165" d="M 208.5,45.5 C 216.725,43.9201 223.725,46.4201 229.5,53C 240.932,60.1095 253.265,62.9428 266.5,61.5C 267.833,61.5 269.167,61.5 270.5,61.5C 270.073,64.3761 269.406,67.2094 268.5,70C 268.759,71.2613 269.426,72.2613 270.5,73C 268.866,75.98 267.2,78.98 265.5,82C 259.956,83.4038 254.29,83.9038 248.5,83.5C 233.859,81.5252 219.193,79.6919 204.5,78C 203.058,77.6232 202.058,76.7899 201.5,75.5C 203.292,75.634 204.958,75.3007 206.5,74.5C 207.601,75.5983 208.934,75.765 210.5,75C 218.507,68.5049 220.507,60.6715 216.5,51.5C 215.969,49.4559 214.802,47.7893 213,46.5C 212.601,46.7284 212.435,47.0618 212.5,47.5C 211.395,46.3995 210.062,45.7329 208.5,45.5 Z"/></g>
<g><path style="opacity:1" fill="#392a22" d="M 216.5,51.5 C 220.507,60.6715 218.507,68.5049 210.5,75C 208.934,75.765 207.601,75.5983 206.5,74.5C 207.552,74.6495 208.552,74.4828 209.5,74C 216.883,68.0689 219.216,60.5689 216.5,51.5 Z"/></g>
<g><path style="opacity:1" fill="#855f47" d="M 280.5,78.5 C 279.061,82.185 278.061,86.0184 277.5,90C 278.584,95.1655 279.584,100.332 280.5,105.5C 279.732,104.737 279.232,103.737 279,102.5C 278.517,103.448 278.351,104.448 278.5,105.5C 274.683,104.826 271.85,106.159 270,109.5C 269.586,109.043 269.086,108.709 268.5,108.5C 267.571,109.689 267.238,111.022 267.5,112.5C 265.981,102.63 261.648,94.13 254.5,87C 252.685,86.2432 251.019,85.4098 249.5,84.5C 259.006,85.8114 267.673,83.978 275.5,79C 277.134,78.5065 278.801,78.3398 280.5,78.5 Z"/></g>
<g><path style="opacity:1" fill="#a2765b" d="M 280.5,105.5 C 281.454,110.558 282.62,115.558 284,120.5C 284.711,118.101 284.544,115.768 283.5,113.5C 289.188,111.368 294.855,111.034 300.5,112.5C 297.187,113.045 293.854,113.545 290.5,114C 293.084,118.657 292.417,122.991 288.5,127C 285.371,128.399 282.371,130.065 279.5,132C 274.557,130.898 269.89,131.731 265.5,134.5C 261.549,129.33 261.549,124.163 265.5,119C 263.39,119.347 261.39,119.18 259.5,118.5C 261.225,117.095 263.225,116.595 265.5,117C 266.406,119.447 267.239,121.947 268,124.5C 268.497,120.476 268.331,116.476 267.5,112.5C 267.238,111.022 267.571,109.689 268.5,108.5C 269.086,108.709 269.586,109.043 270,109.5C 271.85,106.159 274.683,104.826 278.5,105.5C 278.351,104.448 278.517,103.448 279,102.5C 279.232,103.737 279.732,104.737 280.5,105.5 Z"/></g>
<g><path style="opacity:1" fill="#b79076" d="M 300.5,112.5 C 307.535,113.059 313.535,115.725 318.5,120.5C 317.167,120.5 315.833,120.5 314.5,120.5C 312.637,130.47 310.804,140.47 309,150.5C 309.234,160.769 307.734,170.769 304.5,180.5C 304.543,181.416 304.876,182.083 305.5,182.5C 302.916,184.472 299.916,185.472 296.5,185.5C 295.717,183.657 295.05,181.657 294.5,179.5C 295.819,176.355 297.152,173.355 298.5,170.5C 300.144,170.714 301.644,170.38 303,169.5C 304.426,164.243 303.259,159.743 299.5,156C 298.423,155.53 297.423,155.697 296.5,156.5C 295.511,151.025 295.178,145.358 295.5,139.5C 292.387,139.065 291.721,140.065 293.5,142.5C 290.812,153.72 287.645,164.72 284,175.5C 283.542,172.819 282.709,170.319 281.5,168C 282.833,165.333 282.833,162.667 281.5,160C 282.08,156.672 283.58,153.839 286,151.5C 286.333,151.833 286.667,152.167 287,152.5C 287.997,147.625 287.163,143.125 284.5,139C 285.256,136.144 286.089,133.311 287,130.5C 291.38,127.388 295.88,124.388 300.5,121.5C 301.321,118.554 301.321,115.554 300.5,112.5 Z"/></g>
<g><path style="opacity:1" fill="#be967b" d="M 318.5,120.5 C 323.153,124.453 326.32,129.453 328,135.5C 329.862,142.7 331.029,150.033 331.5,157.5C 331.665,160.518 331.498,163.518 331,166.5C 330.667,164.833 330.333,163.167 330,161.5C 329.667,162.5 329.333,163.5 329,164.5C 327.44,174.231 325.607,183.898 323.5,193.5C 319.555,194.491 315.555,194.824 311.5,194.5C 311.473,192.801 310.806,191.467 309.5,190.5C 315.161,187.696 318.661,183.363 320,177.5C 317.2,176.557 314.366,176.724 311.5,178C 309.905,180.102 307.905,181.602 305.5,182.5C 304.876,182.083 304.543,181.416 304.5,180.5C 307.734,170.769 309.234,160.769 309,150.5C 310.804,140.47 312.637,130.47 314.5,120.5C 315.833,120.5 317.167,120.5 318.5,120.5 Z"/></g>
<g><path style="opacity:1" fill="#b28b72" d="M 300.5,112.5 C 301.321,115.554 301.321,118.554 300.5,121.5C 295.88,124.388 291.38,127.388 287,130.5C 286.089,133.311 285.256,136.144 284.5,139C 287.163,143.125 287.997,147.625 287,152.5C 286.667,152.167 286.333,151.833 286,151.5C 283.58,153.839 282.08,156.672 281.5,160C 282.833,162.667 282.833,165.333 281.5,168C 282.709,170.319 283.542,172.819 284,175.5C 287.645,164.72 290.812,153.72 293.5,142.5C 291.721,140.065 292.387,139.065 295.5,139.5C 295.178,145.358 295.511,151.025 296.5,156.5C 294.876,161.512 295.543,166.178 298.5,170.5C 297.152,173.355 295.819,176.355 294.5,179.5C 295.05,181.657 295.717,183.657 296.5,185.5C 290.713,188.692 284.38,190.192 277.5,190C 270.761,190.615 264.094,190.115 257.5,188.5C 255.742,188.592 254.076,188.925 252.5,189.5C 252.196,188.85 251.863,188.183 251.5,187.5C 256.123,175.802 260.456,163.968 264.5,152C 262.915,147.719 262.082,143.219 262,138.5C 258.703,136.205 255.703,133.538 253,130.5C 252.771,127.265 252.604,124.265 252.5,121.5C 254.426,119.707 256.759,118.707 259.5,118.5C 261.39,119.18 263.39,119.347 265.5,119C 261.549,124.163 261.549,129.33 265.5,134.5C 269.89,131.731 274.557,130.898 279.5,132C 282.371,130.065 285.371,128.399 288.5,127C 292.417,122.991 293.084,118.657 290.5,114C 293.854,113.545 297.187,113.045 300.5,112.5 Z"/></g>
<g><path style="opacity:0.786" fill="#0b0b06" d="M 451.5,225.5 C 451.5,224.167 450.833,223.5 449.5,223.5C 450.11,222.609 450.443,221.609 450.5,220.5C 451.096,206.897 457.429,196.897 469.5,190.5C 470.268,185.439 471.935,180.773 474.5,176.5C 471.165,175.661 467.832,175.161 464.5,175C 459.957,181.945 453.624,186.445 445.5,188.5C 443.371,193.805 439.704,197.472 434.5,199.5C 433.167,200.833 433.167,202.167 434.5,203.5C 433.508,203.328 432.842,203.662 432.5,204.5C 431.883,204.389 431.383,204.056 431,203.5C 412.258,209.895 398.591,204.228 390,186.5C 385.493,166.676 392.66,153.176 411.5,146C 427.567,143.45 439.4,149.284 447,163.5C 449.749,170.348 449.915,177.181 447.5,184C 453.479,183.503 458.145,180.67 461.5,175.5C 458.279,171.95 455.112,168.283 452,164.5C 442.521,146.557 446.021,131.724 462.5,120C 483.185,112.334 498.018,118.501 507,138.5C 511.108,161.402 501.608,174.568 478.5,178C 470.075,185.886 471.075,189.053 481.5,187.5C 503.401,190.232 513.234,202.566 511,224.5C 506.537,239.509 496.37,247.509 480.5,248.5C 465.717,247.03 456.051,239.363 451.5,225.5 Z"/></g>
<g><path style="opacity:1" fill="#75b056" d="M 504.5,140.5 C 504.497,143.675 503.497,146.508 501.5,149C 497.877,150.105 494.21,151.105 490.5,152C 489.096,153.337 487.596,154.503 486,155.5C 480.078,152.219 474.078,151.885 468,154.5C 461.95,153.438 456.116,151.771 450.5,149.5C 449.135,134.735 455.468,124.902 469.5,120C 487.047,117.098 498.714,123.932 504.5,140.5 Z"/></g>
<g><path style="opacity:1" fill="#99c27e" d="M 466.5,122.5 C 477.049,123.766 479.716,128.933 474.5,138C 463.989,141.499 459.489,137.665 461,126.5C 463.015,125.303 464.849,123.97 466.5,122.5 Z"/></g>
<g><path style="opacity:1" fill="#608d41" d="M 504.5,140.5 C 506.55,163.476 495.883,174.976 472.5,175C 458.883,171.885 451.55,163.385 450.5,149.5C 456.116,151.771 461.95,153.438 468,154.5C 474.078,151.885 480.078,152.219 486,155.5C 487.596,154.503 489.096,153.337 490.5,152C 494.21,151.105 497.877,150.105 501.5,149C 503.497,146.508 504.497,143.675 504.5,140.5 Z"/></g>
<g><path style="opacity:1" fill="#77b358" d="M 444.5,166.5 C 441.909,168.409 440.242,171.075 439.5,174.5C 438.261,174.942 437.261,175.609 436.5,176.5C 433.169,177.672 429.836,178.506 426.5,179C 426.957,178.586 427.291,178.086 427.5,177.5C 425.703,175.869 424.536,173.869 424,171.5C 421.418,170.716 419.751,169.049 419,166.5C 417.127,168.709 414.96,170.542 412.5,172C 415.377,173.702 418.377,175.202 421.5,176.5C 422.95,177.85 423.617,179.516 423.5,181.5C 416.825,181.666 410.158,181.5 403.5,181C 407.361,179.343 407.361,177.843 403.5,176.5C 399.672,178.804 395.672,179.137 391.5,177.5C 391.209,162.605 398.209,152.771 412.5,148C 428.157,145.659 438.824,151.825 444.5,166.5 Z"/></g>
<g><path style="opacity:1" fill="#9bc67f" d="M 402.5,154.5 C 414.044,154.193 417.044,159.026 411.5,169C 401.951,172.126 397.785,168.626 399,158.5C 400.376,157.295 401.542,155.962 402.5,154.5 Z"/></g>
<g><path style="opacity:1" fill="#1c1b16" d="M 298.5,170.5 C 295.543,166.178 294.876,161.512 296.5,156.5C 297.423,155.697 298.423,155.53 299.5,156C 303.259,159.743 304.426,164.243 303,169.5C 301.644,170.38 300.144,170.714 298.5,170.5 Z"/></g>
<g><path style="opacity:1" fill="#845e46" d="M 450.5,220.5 C 444.223,218.923 437.889,217.59 431.5,216.5C 433.488,214.535 434.988,212.202 436,209.5C 436.941,207.011 436.441,205.011 434.5,203.5C 433.167,202.167 433.167,200.833 434.5,199.5C 439.704,197.472 443.371,193.805 445.5,188.5C 453.624,186.445 459.957,181.945 464.5,175C 467.832,175.161 471.165,175.661 474.5,176.5C 471.935,180.773 470.268,185.439 469.5,190.5C 457.429,196.897 451.096,206.897 450.5,220.5 Z"/></g>
<g><path style="opacity:1" fill="#6da44e" d="M 436.5,176.5 C 436.15,179.71 434.65,180.71 432,179.5C 423.649,185.96 414.149,188.126 403.5,186C 399.812,184.818 396.145,183.652 392.5,182.5C 391.549,181.081 391.216,179.415 391.5,177.5C 395.672,179.137 399.672,178.804 403.5,176.5C 407.361,177.843 407.361,179.343 403.5,181C 410.158,181.5 416.825,181.666 423.5,181.5C 423.617,179.516 422.95,177.85 421.5,176.5C 418.377,175.202 415.377,173.702 412.5,172C 414.96,170.542 417.127,168.709 419,166.5C 419.751,169.049 421.418,170.716 424,171.5C 424.536,173.869 425.703,175.869 427.5,177.5C 427.291,178.086 426.957,178.586 426.5,179C 429.836,178.506 433.169,177.672 436.5,176.5 Z"/></g>
<g><path style="opacity:0.708" fill="#0c0b06" d="M 189.5,235.5 C 189.158,236.338 188.492,236.672 187.5,236.5C 173.759,229.767 162.426,220.1 153.5,207.5C 150.698,202.924 149.198,197.924 149,192.5C 144.202,185.982 141.869,178.649 142,170.5C 135.61,170.558 131.444,167.558 129.5,161.5C 126.717,162.463 124.05,163.63 121.5,165C 121.546,170.142 121.046,175.309 120,180.5C 126.671,188.171 130.004,197.171 130,207.5C 133.333,210.002 136.499,212.668 139.5,215.5C 142.5,217.833 145.167,220.5 147.5,223.5C 146.5,223.5 145.5,223.5 144.5,223.5C 140.336,220.168 136.669,216.335 133.5,212C 132.391,211.362 131.225,210.862 130,210.5C 124.151,223.846 113.984,231.513 99.5,233.5C 75.3314,229.201 65.8314,215.201 71,191.5C 80.9834,172.827 95.6501,167.494 115,175.5C 119.478,173.307 119.645,170.474 115.5,167C 100.815,166.923 90.3147,160.423 84,147.5C 79.924,124.967 88.924,110.967 111,105.5C 127.262,105.732 137.928,113.732 143,129.5C 143.789,135.237 143.456,140.903 142,146.5C 139.399,152.245 136.232,157.579 132.5,162.5C 134.48,166.157 137.48,167.657 141.5,167C 152.017,144.605 168.35,138.939 190.5,150C 203.901,162.413 206.067,176.58 197,192.5C 184.114,205.696 169.448,208.029 153,199.5C 156.11,207.321 160.944,214.154 167.5,220C 174.408,225.938 181.742,231.105 189.5,235.5 Z"/></g>
<g><path style="opacity:1" fill="#699d49" d="M 197.5,163.5 C 198.924,165.515 199.59,167.848 199.5,170.5C 199.5,172.5 199.5,174.5 199.5,176.5C 198.448,176.351 197.448,176.517 196.5,177C 194.173,181.366 190.506,183.199 185.5,182.5C 185.5,183.5 185.5,184.5 185.5,185.5C 181.253,186.644 176.92,187.311 172.5,187.5C 165.357,186.045 158.191,184.711 151,183.5C 148.486,182.599 146.32,181.266 144.5,179.5C 144.5,177.833 144.5,176.167 144.5,174.5C 146.145,175.479 147.479,176.812 148.5,178.5C 158.943,182.398 169.609,183.231 180.5,181C 185.173,178.167 189.84,175.333 194.5,172.5C 191.653,169.223 192.486,167.223 197,166.5C 197.483,165.552 197.649,164.552 197.5,163.5 Z"/></g>
<g><path style="opacity:1" fill="#5e8a40" d="M 199.5,170.5 C 201.212,186.528 194.212,197.028 178.5,202C 173.5,202.667 168.5,202.667 163.5,202C 160.952,199.558 157.952,197.892 154.5,197C 149.48,192.127 146.147,186.293 144.5,179.5C 146.32,181.266 148.486,182.599 151,183.5C 158.191,184.711 165.357,186.045 172.5,187.5C 176.92,187.311 181.253,186.644 185.5,185.5C 185.5,184.5 185.5,183.5 185.5,182.5C 190.506,183.199 194.173,181.366 196.5,177C 197.448,176.517 198.448,176.351 199.5,176.5C 199.5,174.5 199.5,172.5 199.5,170.5 Z"/></g>
<g><path style="opacity:1" fill="#5f8b41" d="M 86.5,129.5 C 86.5,133.5 86.5,137.5 86.5,141.5C 99.8207,146.121 113.487,146.788 127.5,143.5C 127.5,144.5 127.5,145.5 127.5,146.5C 132.244,146.962 133.244,145.462 130.5,142C 132.664,141.086 134.664,139.919 136.5,138.5C 137.524,139.853 138.857,140.52 140.5,140.5C 136.218,158.253 124.885,166.086 106.5,164C 90.0871,157.994 83.4204,146.494 86.5,129.5 Z"/></g>
<g><path style="opacity:1" fill="#78b558" d="M 197.5,163.5 C 197.649,164.552 197.483,165.552 197,166.5C 192.486,167.223 191.653,169.223 194.5,172.5C 189.84,175.333 185.173,178.167 180.5,181C 169.609,183.231 158.943,182.398 148.5,178.5C 147.479,176.812 146.145,175.479 144.5,174.5C 145.245,160.585 152.245,151.418 165.5,147C 176.667,145.33 186.167,148.496 194,156.5C 195.705,158.577 196.872,160.91 197.5,163.5 Z"/></g>
<g><path style="opacity:1" fill="#9cc780" d="M 160.5,151.5 C 168.316,152.495 171.15,156.828 169,164.5C 165.34,168.367 160.84,169.534 155.5,168C 151.356,162.791 151.689,157.791 156.5,153C 158.058,152.79 159.391,152.29 160.5,151.5 Z"/></g>
<g><path style="opacity:1" fill="#81b563" d="M 118.5,109.5 C 115.618,109.608 113.285,110.774 111.5,113C 116.407,118.736 116.74,124.736 112.5,131C 104.713,136.55 98.2127,135.384 93,127.5C 92.8171,124.635 92.3171,121.969 91.5,119.5C 93.1667,117.167 95.1667,115.167 97.5,113.5C 103.897,108.722 110.897,107.388 118.5,109.5 Z"/></g>
<g><path style="opacity:1" fill="#9ac67e" d="M 97.5,113.5 C 107.848,111.297 112.348,115.297 111,125.5C 106.567,130.055 101.734,130.555 96.5,127C 95.0564,125.874 94.3898,124.374 94.5,122.5C 95.2484,119.355 96.2484,116.355 97.5,113.5 Z"/></g>
<g><path style="opacity:1" fill="#74b255" d="M 118.5,109.5 C 134.873,113.201 142.206,123.535 140.5,140.5C 138.857,140.52 137.524,139.853 136.5,138.5C 134.664,139.919 132.664,141.086 130.5,142C 133.244,145.462 132.244,146.962 127.5,146.5C 127.5,145.5 127.5,144.5 127.5,143.5C 113.487,146.788 99.8207,146.121 86.5,141.5C 86.5,137.5 86.5,133.5 86.5,129.5C 87.1266,125.58 88.7933,122.247 91.5,119.5C 92.3171,121.969 92.8171,124.635 93,127.5C 98.2127,135.384 104.713,136.55 112.5,131C 116.74,124.736 116.407,118.736 111.5,113C 113.285,110.774 115.618,109.608 118.5,109.5 Z"/></g>
<g><path style="opacity:1" fill="#76b356" d="M 126.5,195.5 C 126.5,196.167 126.5,196.833 126.5,197.5C 124.083,199.411 121.75,201.578 119.5,204C 116.057,204.309 113.057,205.476 110.5,207.5C 105.63,205.561 101.296,202.895 97.5,199.5C 94.4404,200.559 92.4404,202.559 91.5,205.5C 94.5778,206.202 97.5778,207.202 100.5,208.5C 96.5546,209.491 92.5546,209.824 88.5,209.5C 84.676,211.181 80.676,211.681 76.5,211C 73.8333,209.667 73.8333,208.333 76.5,207C 75.4366,205.812 74.1033,205.312 72.5,205.5C 72.5,202.5 72.5,199.5 72.5,196.5C 77.9467,179.113 89.6134,171.947 107.5,175C 117.684,178.393 124.017,185.226 126.5,195.5 Z"/></g>
<g><path style="opacity:1" fill="#9ac67f" d="M 85.5,180.5 C 91.9866,179.581 96.32,182.081 98.5,188C 97.5486,194.617 93.7153,198.117 87,198.5C 82.5014,197.042 80.0014,193.875 79.5,189C 80.2165,185.138 82.2165,182.305 85.5,180.5 Z"/></g>
<g><path style="opacity:1" fill="#89624a" d="M 153.5,207.5 C 152.363,210.819 150.197,211.819 147,210.5C 146.626,211.416 146.126,212.25 145.5,213C 143.389,213.845 141.389,214.678 139.5,215.5C 136.499,212.668 133.333,210.002 130,207.5C 130.004,197.171 126.671,188.171 120,180.5C 121.046,175.309 121.546,170.142 121.5,165C 124.05,163.63 126.717,162.463 129.5,161.5C 131.444,167.558 135.61,170.558 142,170.5C 141.869,178.649 144.202,185.982 149,192.5C 149.198,197.924 150.698,202.924 153.5,207.5 Z"/></g>
<g><path style="opacity:1" fill="#5f8b40" d="M 444.5,166.5 C 445.653,172.319 445.819,178.319 445,184.5C 444.275,186.949 443.275,189.283 442,191.5C 439.295,194.036 436.795,196.703 434.5,199.5C 426.235,203.687 417.568,204.521 408.5,202C 399.734,198.293 394.401,191.793 392.5,182.5C 396.145,183.652 399.812,184.818 403.5,186C 414.149,188.126 423.649,185.96 432,179.5C 434.65,180.71 436.15,179.71 436.5,176.5C 437.261,175.609 438.261,174.942 439.5,174.5C 440.242,171.075 441.909,168.409 444.5,166.5 Z"/></g>
<g><path style="opacity:1" fill="#b68f75" d="M 252.5,121.5 C 252.604,124.265 252.771,127.265 253,130.5C 255.703,133.538 258.703,136.205 262,138.5C 262.082,143.219 262.915,147.719 264.5,152C 260.456,163.968 256.123,175.802 251.5,187.5C 251.863,188.183 252.196,188.85 252.5,189.5C 252.297,191.39 252.963,192.89 254.5,194C 259.911,197.043 265.744,198.543 272,198.5C 279.849,197.456 287.682,196.29 295.5,195C 298.865,194.495 301.865,193.328 304.5,191.5C 306.216,191.371 307.883,191.038 309.5,190.5C 310.806,191.467 311.473,192.801 311.5,194.5C 315.555,194.824 319.555,194.491 323.5,193.5C 325.607,183.898 327.44,174.231 329,164.5C 329.333,163.5 329.667,162.5 330,161.5C 330.333,163.167 330.667,164.833 331,166.5C 331.498,163.518 331.665,160.518 331.5,157.5C 332.662,167.34 333.662,177.34 334.5,187.5C 334.966,192.43 334.299,197.097 332.5,201.5C 331.224,203.562 330.39,205.896 330,208.5C 325.066,202.738 322.233,203.738 321.5,211.5C 317.5,211.5 313.5,211.5 309.5,211.5C 309.058,215.847 308.225,216.18 307,212.5C 300.537,216.733 296.537,222.733 295,230.5C 292.646,230.108 290.146,230.108 287.5,230.5C 287.649,229.448 287.483,228.448 287,227.5C 283.333,232.167 279.667,236.833 276,241.5C 273.956,247.087 274.122,252.587 276.5,258C 268.257,263.159 261.757,261.326 257,252.5C 252.937,245.708 249.437,238.708 246.5,231.5C 246.784,229.585 246.451,227.919 245.5,226.5C 244.778,217.831 243.945,209.165 243,200.5C 239.38,183.57 236.214,166.57 233.5,149.5C 233.9,136.005 240.234,126.672 252.5,121.5 Z"/></g>
<g><path style="opacity:1" fill="#211916" d="M 309.5,190.5 C 307.883,191.038 306.216,191.371 304.5,191.5C 301.865,193.328 298.865,194.495 295.5,195C 287.682,196.29 279.849,197.456 272,198.5C 265.744,198.543 259.911,197.043 254.5,194C 252.963,192.89 252.297,191.39 252.5,189.5C 254.076,188.925 255.742,188.592 257.5,188.5C 264.094,190.115 270.761,190.615 277.5,190C 284.38,190.192 290.713,188.692 296.5,185.5C 299.916,185.472 302.916,184.472 305.5,182.5C 307.905,181.602 309.905,180.102 311.5,178C 314.366,176.724 317.2,176.557 320,177.5C 318.661,183.363 315.161,187.696 309.5,190.5 Z"/></g>
<g><path style="opacity:1" fill="#d8918e" d="M 304.5,191.5 C 289.769,196.178 274.769,197.344 259.5,195C 256.293,194.428 254.626,192.595 254.5,189.5C 276.75,194.583 297.416,190.916 316.5,178.5C 317.167,178.833 317.833,179.167 318.5,179.5C 318,180.5 317.5,181.5 317,182.5C 313.21,186.138 309.043,189.138 304.5,191.5 Z"/></g>
<g><path style="opacity:1" fill="#1d1a15" d="M 265.5,161.5 C 268.595,161.626 270.428,163.293 271,166.5C 271.777,169.429 271.61,172.263 270.5,175C 268.299,175.825 266.466,175.325 265,173.5C 262.993,169.273 263.159,165.273 265.5,161.5 Z"/></g>
<g><path style="opacity:1" fill="#878585" d="M 268.5,165.5 C 269.791,166.542 269.791,167.708 268.5,169C 267.002,169.585 266.002,169.085 265.5,167.5C 267.179,167.715 268.179,167.048 268.5,165.5 Z"/></g>
<g><path style="opacity:1" fill="#e0e0e0" d="M 268.5,165.5 C 268.179,167.048 267.179,167.715 265.5,167.5C 265.5,166.167 265.5,164.833 265.5,163.5C 267.179,163.285 268.179,163.952 268.5,165.5 Z"/></g>
<g><path style="opacity:1" fill="#cbcaca" d="M 297.5,157.5 C 300.084,158.048 301.084,159.715 300.5,162.5C 299.5,162.5 298.5,162.5 297.5,162.5C 297.5,160.833 297.5,159.167 297.5,157.5 Z"/></g>
<g><path style="opacity:1" fill="#5f8a40" d="M 126.5,195.5 C 128.882,216.017 119.715,227.684 99,230.5C 78.9792,227.667 70.1458,216.333 72.5,196.5C 72.5,199.5 72.5,202.5 72.5,205.5C 74.1033,205.312 75.4366,205.812 76.5,207C 73.8333,208.333 73.8333,209.667 76.5,211C 80.676,211.681 84.676,211.181 88.5,209.5C 89.2341,210.708 89.5674,212.041 89.5,213.5C 95.8421,213.666 102.175,213.5 108.5,213C 109.701,212.097 110.535,210.931 111,209.5C 113.064,210.591 115.231,210.758 117.5,210C 119.249,208.708 121.082,207.542 123,206.5C 125.239,203.985 126.406,200.985 126.5,197.5C 126.5,196.833 126.5,196.167 126.5,195.5 Z"/></g>
<g><path style="opacity:1" fill="#6ca24d" d="M 126.5,197.5 C 126.406,200.985 125.239,203.985 123,206.5C 121.082,207.542 119.249,208.708 117.5,210C 115.231,210.758 113.064,210.591 111,209.5C 110.535,210.931 109.701,212.097 108.5,213C 102.175,213.5 95.8421,213.666 89.5,213.5C 89.5674,212.041 89.2341,210.708 88.5,209.5C 92.5546,209.824 96.5546,209.491 100.5,208.5C 97.5778,207.202 94.5778,206.202 91.5,205.5C 92.4404,202.559 94.4404,200.559 97.5,199.5C 101.296,202.895 105.63,205.561 110.5,207.5C 113.057,205.476 116.057,204.309 119.5,204C 121.75,201.578 124.083,199.411 126.5,197.5 Z"/></g>
<g><path style="opacity:1" fill="#b08164" d="M 334.5,187.5 C 336.855,206.75 337.021,226.083 335,245.5C 336.117,244.051 336.784,242.384 337,240.5C 337.561,239.978 338.228,239.645 339,239.5C 346.934,242.663 355.101,243.329 363.5,241.5C 366.448,241.223 369.281,241.556 372,242.5C 373.049,240.893 374.549,240.227 376.5,240.5C 375.231,246.548 373.231,252.381 370.5,258C 371.056,258.383 371.389,258.883 371.5,259.5C 365.49,261.56 359.49,263.726 353.5,266C 348.979,268.784 344.312,271.284 339.5,273.5C 333.929,269.128 327.929,268.461 321.5,271.5C 321.472,276.862 321.806,282.195 322.5,287.5C 324.81,287.242 326.81,287.242 328.5,287.5C 322.326,309.523 314.659,331.023 305.5,352C 301.93,362.361 298.93,372.861 296.5,383.5C 295.833,383.5 295.167,383.5 294.5,383.5C 296.265,365.644 298.432,347.644 301,329.5C 302.067,325.465 303.234,321.465 304.5,317.5C 304.273,315.329 303.94,313.162 303.5,311C 306.092,298.18 308.759,285.347 311.5,272.5C 310.698,264.936 311.865,257.602 315,250.5C 320.401,240.701 326.068,231.035 332,221.5C 334.041,216.771 333.875,212.271 331.5,208C 333.075,205.856 333.408,203.689 332.5,201.5C 334.299,197.097 334.966,192.43 334.5,187.5 Z"/></g>
<g><path style="opacity:0.005" fill="#060303" d="M 129.5,214.5 C 130.289,214.783 130.956,215.283 131.5,216C 130.184,216.528 129.517,216.028 129.5,214.5 Z"/></g>
<g><path style="opacity:1" fill="#74ad55" d="M 507.5,208.5 C 507.813,211.247 507.48,213.914 506.5,216.5C 504.24,218.177 502.573,220.343 501.5,223C 493.876,224.123 486.209,224.956 478.5,225.5C 470.152,223.738 461.818,222.071 453.5,220.5C 453.231,205.588 460.231,195.755 474.5,191C 486.095,188.854 495.928,192.021 504,200.5C 505.454,203.071 506.62,205.738 507.5,208.5 Z"/></g>
<g><path style="opacity:1" fill="#9bc67f" d="M 470.5,196.5 C 479.46,195.051 482.96,198.717 481,207.5C 476.38,214.964 471.38,215.297 466,208.5C 464.309,203.131 465.809,199.131 470.5,196.5 Z"/></g>
<g><path style="opacity:1" fill="#608d41" d="M 507.5,208.5 C 511.126,235.045 499.459,247.211 472.5,245C 461.078,240.748 454.745,232.582 453.5,220.5C 461.818,222.071 470.152,223.738 478.5,225.5C 486.209,224.956 493.876,224.123 501.5,223C 502.573,220.343 504.24,218.177 506.5,216.5C 507.48,213.914 507.813,211.247 507.5,208.5 Z"/></g>
<g><path style="opacity:1" fill="#ad7f63" d="M 153.5,207.5 C 162.426,220.1 173.759,229.767 187.5,236.5C 198.164,243.228 209.831,247.728 222.5,250C 226.357,250.758 230.023,250.258 233.5,248.5C 235.121,248.787 236.121,249.787 236.5,251.5C 232.867,257.293 231.867,263.293 233.5,269.5C 231.604,270.466 229.604,270.799 227.5,270.5C 212.566,264.685 197.9,258.185 183.5,251C 170.57,243.037 158.57,233.87 147.5,223.5C 145.167,220.5 142.5,217.833 139.5,215.5C 141.389,214.678 143.389,213.845 145.5,213C 146.126,212.25 146.626,211.416 147,210.5C 150.197,211.819 152.363,210.819 153.5,207.5 Z"/></g>
<g><path style="opacity:1" fill="#a5785d" d="M 431.5,216.5 C 437.889,217.59 444.223,218.923 450.5,220.5C 450.443,221.609 450.11,222.609 449.5,223.5C 425.33,239.248 399.33,251.248 371.5,259.5C 371.389,258.883 371.056,258.383 370.5,258C 373.231,252.381 375.231,246.548 376.5,240.5C 374.549,240.227 373.049,240.893 372,242.5C 369.281,241.556 366.448,241.223 363.5,241.5C 387.053,240.029 408.72,232.862 428.5,220C 429.71,218.961 430.71,217.794 431.5,216.5 Z"/></g>
<g><path style="opacity:1" fill="#b3866a" d="M 332.5,201.5 C 333.408,203.689 333.075,205.856 331.5,208C 333.875,212.271 334.041,216.771 332,221.5C 326.068,231.035 320.401,240.701 315,250.5C 311.865,257.602 310.698,264.936 311.5,272.5C 308.759,285.347 306.092,298.18 303.5,311C 303.94,313.162 304.273,315.329 304.5,317.5C 303.234,321.465 302.067,325.465 301,329.5C 298.432,347.644 296.265,365.644 294.5,383.5C 292.455,387.867 289.122,390.867 284.5,392.5C 283.756,391.009 283.09,389.509 282.5,388C 283.89,373.905 285.057,359.738 286,345.5C 286.402,344.128 286.902,342.795 287.5,341.5C 287.376,340.893 287.043,340.56 286.5,340.5C 287.648,335.57 288.315,330.57 288.5,325.5C 289.734,317.672 289.4,309.839 287.5,302C 289.41,289.719 291.243,277.553 293,265.5C 290.657,266.127 288.49,267.127 286.5,268.5C 285.914,268.291 285.414,267.957 285,267.5C 284.722,268.416 284.222,269.082 283.5,269.5C 283.373,265.67 281.706,264.337 278.5,265.5C 277.391,265.557 276.391,265.89 275.5,266.5C 273.133,264.977 270.633,263.644 268,262.5C 267.228,262.645 266.561,262.978 266,263.5C 265.167,265.5 264.333,267.5 263.5,269.5C 262.583,268.873 261.583,268.539 260.5,268.5C 249.55,258.664 244.884,246.331 246.5,231.5C 249.437,238.708 252.937,245.708 257,252.5C 261.757,261.326 268.257,263.159 276.5,258C 274.122,252.587 273.956,247.087 276,241.5C 279.667,236.833 283.333,232.167 287,227.5C 287.483,228.448 287.649,229.448 287.5,230.5C 290.146,230.108 292.646,230.108 295,230.5C 296.537,222.733 300.537,216.733 307,212.5C 308.225,216.18 309.058,215.847 309.5,211.5C 313.5,211.5 317.5,211.5 321.5,211.5C 322.233,203.738 325.066,202.738 330,208.5C 330.39,205.896 331.224,203.562 332.5,201.5 Z"/></g>
<g><path style="opacity:1" fill="#a6795e" d="M 245.5,226.5 C 246.451,227.919 246.784,229.585 246.5,231.5C 244.884,246.331 249.55,258.664 260.5,268.5C 259.108,273.178 257.108,278.012 254.5,283C 254.5,284.667 254.5,286.333 254.5,288C 256.176,290.174 257.176,292.674 257.5,295.5C 253.07,322.019 248.07,349.186 242.5,377C 242.094,378.803 242.594,380.636 244,382.5C 244.278,381.584 244.778,380.918 245.5,380.5C 244.032,384.706 243.032,389.039 242.5,393.5C 242.5,397.5 242.5,401.5 242.5,405.5C 241.306,406.777 239.64,407.444 237.5,407.5C 223.494,406.246 211.661,400.58 202,390.5C 200.991,388.975 200.491,387.308 200.5,385.5C 209.778,352.96 221.278,321.293 235,290.5C 237.244,283.023 239.411,275.523 241.5,268C 240.648,266.102 239.981,266.269 239.5,268.5C 238.512,271.782 237.846,275.115 237.5,278.5C 233.911,276.255 230.578,273.588 227.5,270.5C 229.604,270.799 231.604,270.466 233.5,269.5C 231.867,263.293 232.867,257.293 236.5,251.5C 236.121,249.787 235.121,248.787 233.5,248.5C 236.688,245.97 239.855,243.304 243,240.5C 243.186,242.9 243.686,245.234 244.5,247.5C 245.497,240.532 245.83,233.532 245.5,226.5 Z"/></g>
<g><path style="opacity:1" fill="#845f48" d="M 339.5,273.5 C 336.979,275.701 334.479,278.034 332,280.5C 330.787,282.925 329.621,285.259 328.5,287.5C 326.81,287.242 324.81,287.242 322.5,287.5C 321.806,282.195 321.472,276.862 321.5,271.5C 327.929,268.461 333.929,269.128 339.5,273.5 Z"/></g>
<g><path style="opacity:1" fill="#e0c043" d="M 278.5,265.5 C 279.496,265.414 280.329,265.748 281,266.5C 283.072,280.775 279.572,293.442 270.5,304.5C 268.224,304.244 267.057,302.91 267,300.5C 265.447,287.04 269.28,275.373 278.5,265.5 Z"/></g>
<g><path style="opacity:1" fill="#a77a5e" d="M 288.5,325.5 C 287.833,327.167 287.167,328.833 286.5,330.5C 286.662,328.473 286.495,326.473 286,324.5C 284.961,325.71 283.794,326.71 282.5,327.5C 281.671,326.668 280.838,327.001 280,328.5C 277.599,333.232 276.932,338.232 278,343.5C 279.65,346.106 281.15,346.106 282.5,343.5C 283.833,342.5 285.167,341.5 286.5,340.5C 287.043,340.56 287.376,340.893 287.5,341.5C 286.902,342.795 286.402,344.128 286,345.5C 285.057,359.738 283.89,373.905 282.5,388C 283.09,389.509 283.756,391.009 284.5,392.5C 289.122,390.867 292.455,387.867 294.5,383.5C 295.167,383.5 295.833,383.5 296.5,383.5C 296.453,386.568 295.953,389.568 295,392.5C 293.539,391.117 292.706,391.451 292.5,393.5C 287.449,396.253 282.449,398.92 277.5,401.5C 273.64,403.844 269.64,406.011 265.5,408C 260.948,408.796 256.448,409.629 252,410.5C 251.601,410.272 251.435,409.938 251.5,409.5C 256.628,399.535 258.961,388.868 258.5,377.5C 258.751,375.83 259.418,374.33 260.5,373C 260.167,372 259.833,371 259.5,370C 262.176,363.596 263.676,357.096 264,350.5C 265.419,349.54 266.919,348.707 268.5,348C 264.998,347.344 264.998,346.011 268.5,344C 266.798,342.417 265.464,342.917 264.5,345.5C 261.972,344.502 261.972,343.669 264.5,343C 263.588,339.17 264.254,335.17 266.5,331C 266.108,328.646 266.108,326.146 266.5,323.5C 267.552,323.649 268.552,323.483 269.5,323C 271.5,319.174 273.333,319.008 275,322.5C 275.5,322 276,321.5 276.5,321C 274.462,319.764 273.295,317.931 273,315.5C 271.913,317.932 271.413,317.598 271.5,314.5C 268.074,314.65 267.741,313.484 270.5,311C 269.939,309.324 268.939,307.991 267.5,307C 268.416,306.722 269.082,306.222 269.5,305.5C 270.167,305.5 270.5,305.167 270.5,304.5C 272.017,304.489 273.184,303.823 274,302.5C 280.515,292.456 283.682,281.456 283.5,269.5C 284.222,269.082 284.722,268.416 285,267.5C 285.414,267.957 285.914,268.291 286.5,268.5C 288.49,267.127 290.657,266.127 293,265.5C 291.243,277.553 289.41,289.719 287.5,302C 289.4,309.839 289.734,317.672 288.5,325.5 Z"/></g>
<g><path style="opacity:1" fill="#261e13" d="M 278.5,265.5 C 269.28,275.373 265.447,287.04 267,300.5C 267.057,302.91 268.224,304.244 270.5,304.5C 270.5,305.167 270.167,305.5 269.5,305.5C 268.5,305.5 267.5,305.5 266.5,305.5C 263.047,291.155 266.047,278.155 275.5,266.5C 276.391,265.89 277.391,265.557 278.5,265.5 Z"/></g>
<g><path style="opacity:1" fill="#1d170f" d="M 278.5,265.5 C 281.706,264.337 283.373,265.67 283.5,269.5C 283.682,281.456 280.515,292.456 274,302.5C 273.184,303.823 272.017,304.489 270.5,304.5C 279.572,293.442 283.072,280.775 281,266.5C 280.329,265.748 279.496,265.414 278.5,265.5 Z"/></g>
<g><path style="opacity:1" fill="#2f2618" d="M 244.5,311.5 C 245.607,316.081 245.773,320.748 245,325.5C 244.617,326.056 244.117,326.389 243.5,326.5C 243.666,321.821 243.499,317.155 243,312.5C 242.282,311.549 241.449,311.383 240.5,312C 238.963,313.707 237.296,315.207 235.5,316.5C 236.543,313.944 238.21,311.777 240.5,310C 242.066,309.7 243.399,310.2 244.5,311.5 Z"/></g>
<g><path style="opacity:1" fill="#e8cb59" d="M 243.5,326.5 C 242.833,326.5 242.5,326.833 242.5,327.5C 241.302,330.426 240.302,333.426 239.5,336.5C 237.533,339.477 235.533,342.477 233.5,345.5C 232.5,345.5 231.5,345.5 230.5,345.5C 229.074,343.321 228.408,340.821 228.5,338C 229.108,333.071 230.108,328.238 231.5,323.5C 233.588,321.664 234.921,319.331 235.5,316.5C 237.296,315.207 238.963,313.707 240.5,312C 241.449,311.383 242.282,311.549 243,312.5C 243.499,317.155 243.666,321.821 243.5,326.5 Z"/></g>
<g><path style="opacity:1" fill="#a3775c" d="M 275.5,266.5 C 266.047,278.155 263.047,291.155 266.5,305.5C 267.5,305.5 268.5,305.5 269.5,305.5C 269.082,306.222 268.416,306.722 267.5,307C 268.939,307.991 269.939,309.324 270.5,311C 267.741,313.484 268.074,314.65 271.5,314.5C 271.413,317.598 271.913,317.932 273,315.5C 273.295,317.931 274.462,319.764 276.5,321C 276,321.5 275.5,322 275,322.5C 273.333,319.008 271.5,319.174 269.5,323C 268.552,323.483 267.552,323.649 266.5,323.5C 266.108,326.146 266.108,328.646 266.5,331C 264.254,335.17 263.588,339.17 264.5,343C 261.972,343.669 261.972,344.502 264.5,345.5C 265.464,342.917 266.798,342.417 268.5,344C 264.998,346.011 264.998,347.344 268.5,348C 266.919,348.707 265.419,349.54 264,350.5C 263.676,357.096 262.176,363.596 259.5,370C 259.833,371 260.167,372 260.5,373C 259.418,374.33 258.751,375.83 258.5,377.5C 257.781,375.909 256.781,374.409 255.5,373C 253.486,372.221 252.486,372.388 252.5,373.5C 252.167,374.5 251.5,375.167 250.5,375.5C 250.565,375.062 250.399,374.728 250,374.5C 248.612,376.702 247.112,378.702 245.5,380.5C 244.778,380.918 244.278,381.584 244,382.5C 242.594,380.636 242.094,378.803 242.5,377C 248.07,349.186 253.07,322.019 257.5,295.5C 257.176,292.674 256.176,290.174 254.5,288C 254.5,286.333 254.5,284.667 254.5,283C 257.108,278.012 259.108,273.178 260.5,268.5C 261.583,268.539 262.583,268.873 263.5,269.5C 264.333,267.5 265.167,265.5 266,263.5C 266.561,262.978 267.228,262.645 268,262.5C 270.633,263.644 273.133,264.977 275.5,266.5 Z"/></g>
<g><path style="opacity:1" fill="#31281a" d="M 235.5,316.5 C 234.921,319.331 233.588,321.664 231.5,323.5C 231.998,320.674 233.331,318.34 235.5,316.5 Z"/></g>
<g><path style="opacity:1" fill="#e9c746" d="M 286.5,330.5 C 285.931,335.122 284.597,339.455 282.5,343.5C 281.5,343.5 280.5,343.5 279.5,343.5C 279.334,339.486 279.501,335.486 280,331.5C 280.662,330.016 281.496,328.683 282.5,327.5C 283.794,326.71 284.961,325.71 286,324.5C 286.495,326.473 286.662,328.473 286.5,330.5 Z"/></g>
<g><path style="opacity:1" fill="#241c13" d="M 242.5,327.5 C 243.097,327.735 243.43,328.235 243.5,329C 242.999,332.048 241.666,334.548 239.5,336.5C 240.302,333.426 241.302,330.426 242.5,327.5 Z"/></g>
<g><path style="opacity:1" fill="#140f0b" d="M 231.5,323.5 C 230.108,328.238 229.108,333.071 228.5,338C 228.408,340.821 229.074,343.321 230.5,345.5C 233.258,346.967 232.925,347.633 229.5,347.5C 227.49,342.046 226.99,336.38 228,330.5C 228.67,327.826 229.837,325.493 231.5,323.5 Z"/></g>
<g><path style="opacity:1" fill="#34281b" d="M 288.5,325.5 C 288.315,330.57 287.648,335.57 286.5,340.5C 285.167,341.5 283.833,342.5 282.5,343.5C 284.597,339.455 285.931,335.122 286.5,330.5C 287.167,328.833 287.833,327.167 288.5,325.5 Z"/></g>
<g><path style="opacity:1" fill="#1e180f" d="M 282.5,327.5 C 281.496,328.683 280.662,330.016 280,331.5C 279.501,335.486 279.334,339.486 279.5,343.5C 280.5,343.5 281.5,343.5 282.5,343.5C 281.15,346.106 279.65,346.106 278,343.5C 276.932,338.232 277.599,333.232 280,328.5C 280.838,327.001 281.671,326.668 282.5,327.5 Z"/></g>
<g><path style="opacity:1" fill="#281f17" d="M 239.5,336.5 C 239.041,340.609 237.041,343.609 233.5,345.5C 235.533,342.477 237.533,339.477 239.5,336.5 Z"/></g>
<g><path style="opacity:1" fill="#b48d74" d="M 244.5,311.5 C 243.399,310.2 242.066,309.7 240.5,310C 238.21,311.777 236.543,313.944 235.5,316.5C 233.331,318.34 231.998,320.674 231.5,323.5C 229.837,325.493 228.67,327.826 228,330.5C 226.99,336.38 227.49,342.046 229.5,347.5C 230.429,348.315 231.429,349.148 232.5,350C 231.418,353.405 230.584,356.905 230,360.5C 226.77,363.531 223.27,366.197 219.5,368.5C 218.754,369.736 218.421,371.07 218.5,372.5C 217.167,372.5 215.833,372.5 214.5,372.5C 215.591,357.691 218.757,343.358 224,329.5C 230.016,316.803 236.016,304.136 242,291.5C 244.53,288.937 246.697,286.103 248.5,283C 249.448,282.517 250.448,282.351 251.5,282.5C 251.265,288.849 250.765,295.183 250,301.5C 248.392,305.056 246.559,308.389 244.5,311.5 Z"/></g>
<g><path style="opacity:1" fill="#241c13" d="M 258.5,377.5 C 258.961,388.868 256.628,399.535 251.5,409.5C 250.833,409.833 250.167,410.167 249.5,410.5C 255.328,399.571 257.494,387.905 256,375.5C 255.184,374.177 254.017,373.511 252.5,373.5C 252.486,372.388 253.486,372.221 255.5,373C 256.781,374.409 257.781,375.909 258.5,377.5 Z"/></g>
<g><path style="opacity:1" fill="#debe42" d="M 252.5,373.5 C 254.017,373.511 255.184,374.177 256,375.5C 257.494,387.905 255.328,399.571 249.5,410.5C 248.178,410.67 247.011,410.337 246,409.5C 244.798,407.323 244.298,404.989 244.5,402.5C 243.524,392.748 245.524,383.748 250.5,375.5C 251.5,375.167 252.167,374.5 252.5,373.5 Z"/></g>
<g><path style="opacity:1" fill="#45361f" d="M 250.5,375.5 C 245.524,383.748 243.524,392.748 244.5,402.5C 243.833,399.5 243.167,396.5 242.5,393.5C 243.032,389.039 244.032,384.706 245.5,380.5C 247.112,378.702 248.612,376.702 250,374.5C 250.399,374.728 250.565,375.062 250.5,375.5 Z"/></g>
<g><path style="opacity:1" fill="#8c644b" d="M 292.5,393.5 C 303.63,401.174 310.13,411.841 312,425.5C 312.819,431.681 312.653,437.681 311.5,443.5C 311.631,442.624 311.298,441.957 310.5,441.5C 304.271,442.369 298.604,444.536 293.5,448C 289.535,451.667 285.702,455.5 282,459.5C 281.648,461.247 281.148,462.914 280.5,464.5C 277.685,463.874 275.185,462.54 273,460.5C 273.747,463.445 275.58,465.778 278.5,467.5C 270.05,473.205 260.716,475.872 250.5,475.5C 249.883,473.39 250.217,471.223 251.5,469C 255.211,468.825 258.878,468.325 262.5,467.5C 262.64,466.097 262.64,464.597 262.5,463C 265.2,462.051 266.033,460.217 265,457.5C 264.293,455.919 263.46,454.419 262.5,453C 263.744,452.544 264.577,453.044 265,454.5C 269.934,451.163 270.767,446.996 267.5,442C 266.946,439.388 267.613,436.888 269.5,434.5C 268.725,432.698 267.725,432.031 266.5,432.5C 266.877,428.327 267.877,424.327 269.5,420.5C 270.833,420.5 272.167,420.5 273.5,420.5C 275.013,431.552 274.68,442.552 272.5,453.5C 273,455.5 273.5,457.5 274,459.5C 276.973,453.881 277.14,448.214 274.5,442.5C 274.833,442.167 275.167,441.833 275.5,441.5C 276.243,442.908 277.077,444.241 278,445.5C 280.517,440.867 281.017,436.033 279.5,431C 281.949,420.788 282.449,410.621 281,400.5C 279.989,401.337 278.822,401.67 277.5,401.5C 282.449,398.92 287.449,396.253 292.5,393.5 Z"/></g>
<g><path style="opacity:1" fill="#100b07" d="M 242.5,393.5 C 243.167,396.5 243.833,399.5 244.5,402.5C 244.298,404.989 244.798,407.323 246,409.5C 247.011,410.337 248.178,410.67 249.5,410.5C 248.998,412.085 247.998,412.585 246.5,412C 244.372,410.208 243.039,408.042 242.5,405.5C 242.5,401.5 242.5,397.5 242.5,393.5 Z"/></g>
<g><path style="opacity:1" fill="#815b45" d="M 198.5,392.5 C 198.744,395.263 200.077,397.429 202.5,399C 207.34,401.919 212.006,405.086 216.5,408.5C 218.323,409.747 220.323,410.414 222.5,410.5C 222.453,419.242 222.453,427.909 222.5,436.5C 222.375,441.055 221.708,445.389 220.5,449.5C 220.573,438.365 218.406,427.699 214,417.5C 210.792,414.513 208.959,415.18 208.5,419.5C 203.864,432.186 205.031,444.519 212,456.5C 212.816,457.823 213.983,458.489 215.5,458.5C 216.5,458.5 217.5,458.5 218.5,458.5C 218.119,459.931 217.119,460.764 215.5,461C 216.167,461.333 216.833,461.667 217.5,462C 216.572,462.388 215.905,463.055 215.5,464C 216.978,465.478 218.478,466.978 220,468.5C 220.47,469.577 220.303,470.577 219.5,471.5C 215.188,469.679 210.855,467.846 206.5,466C 204.291,464.127 202.458,461.96 201,459.5C 200.735,461.163 201.235,462.663 202.5,464C 199.525,464.044 196.525,463.877 193.5,463.5C 193.611,462.883 193.944,462.383 194.5,462C 188.909,453.223 184.076,444.056 180,434.5C 179.329,433.748 178.496,433.414 177.5,433.5C 178.404,418.353 184.238,405.353 195,394.5C 194.557,401.668 193.724,408.835 192.5,416C 192.509,417.404 193.009,418.57 194,419.5C 194.725,410.233 196.225,401.233 198.5,392.5 Z"/></g>
<g><path style="opacity:1" fill="#886149" d="M 200.5,385.5 C 200.491,387.308 200.991,388.975 202,390.5C 211.661,400.58 223.494,406.246 237.5,407.5C 239.64,407.444 241.306,406.777 242.5,405.5C 243.039,408.042 244.372,410.208 246.5,412C 247.998,412.585 248.998,412.085 249.5,410.5C 250.167,410.167 250.833,409.833 251.5,409.5C 251.435,409.938 251.601,410.272 252,410.5C 256.448,409.629 260.948,408.796 265.5,408C 269.64,406.011 273.64,403.844 277.5,401.5C 278.822,401.67 279.989,401.337 281,400.5C 282.449,410.621 281.949,420.788 279.5,431C 281.017,436.033 280.517,440.867 278,445.5C 277.077,444.241 276.243,442.908 275.5,441.5C 275.167,441.833 274.833,442.167 274.5,442.5C 277.14,448.214 276.973,453.881 274,459.5C 273.5,457.5 273,455.5 272.5,453.5C 274.68,442.552 275.013,431.552 273.5,420.5C 272.167,420.5 270.833,420.5 269.5,420.5C 270.038,418.883 270.371,417.216 270.5,415.5C 267.936,420.513 265.936,425.846 264.5,431.5C 264.957,432.298 265.624,432.631 266.5,432.5C 267.725,432.031 268.725,432.698 269.5,434.5C 267.613,436.888 266.946,439.388 267.5,442C 270.767,446.996 269.934,451.163 265,454.5C 264.577,453.044 263.744,452.544 262.5,453C 263.46,454.419 264.293,455.919 265,457.5C 266.033,460.217 265.2,462.051 262.5,463C 262.64,464.597 262.64,466.097 262.5,467.5C 258.878,468.325 255.211,468.825 251.5,469C 250.217,471.223 249.883,473.39 250.5,475.5C 239.859,476.269 229.525,474.935 219.5,471.5C 220.303,470.577 220.47,469.577 220,468.5C 218.478,466.978 216.978,465.478 215.5,464C 215.905,463.055 216.572,462.388 217.5,462C 216.833,461.667 216.167,461.333 215.5,461C 217.119,460.764 218.119,459.931 218.5,458.5C 220.265,455.877 220.932,452.877 220.5,449.5C 221.708,445.389 222.375,441.055 222.5,436.5C 222.453,427.909 222.453,419.242 222.5,410.5C 220.323,410.414 218.323,409.747 216.5,408.5C 212.006,405.086 207.34,401.919 202.5,399C 200.077,397.429 198.744,395.263 198.5,392.5C 198.41,389.848 199.076,387.515 200.5,385.5 Z"/></g>
<g><path style="opacity:1" fill="#251b16" d="M 270.5,415.5 C 271.262,411.309 273.096,407.642 276,404.5C 274.737,408.36 272.903,412.027 270.5,415.5 Z"/></g>
<g><path style="opacity:1" fill="#221914" d="M 270.5,415.5 C 270.371,417.216 270.038,418.883 269.5,420.5C 267.877,424.327 266.877,428.327 266.5,432.5C 265.624,432.631 264.957,432.298 264.5,431.5C 265.936,425.846 267.936,420.513 270.5,415.5 Z"/></g>
<g><path style="opacity:1" fill="#b39532" d="M 218.5,458.5 C 217.5,458.5 216.5,458.5 215.5,458.5C 207.768,446.62 205.434,433.62 208.5,419.5C 209.156,418.722 209.989,418.056 211,417.5C 214.325,421.155 216.325,425.488 217,430.5C 219.516,439.743 220.016,449.077 218.5,458.5 Z"/></g>
<g><path style="opacity:0.798" fill="#0e0907" d="M 449.5,223.5 C 450.833,223.5 451.5,224.167 451.5,225.5C 449.821,225.892 448.154,226.392 446.5,227C 436.334,233.584 426,239.918 415.5,246C 396.609,253.278 377.609,260.278 358.5,267C 349.027,271.144 340.527,276.644 333,283.5C 329.062,294.314 325.729,305.314 323,316.5C 312.251,338.142 304.251,360.808 299,384.5C 298.333,387.833 298.333,391.167 299,394.5C 313.635,410.028 318.468,428.362 313.5,449.5C 313.709,457.88 317.209,464.547 324,469.5C 328.311,466.083 333.144,464.583 338.5,465C 352.935,473.463 362.102,485.963 366,502.5C 368.25,508.992 367.917,515.325 365,521.5C 358.649,526.081 351.482,528.581 343.5,529C 334.908,530.125 326.574,529.125 318.5,526C 313.734,521.607 313.567,517.107 318,512.5C 320.039,510.126 322.372,508.126 325,506.5C 326.807,504.26 326.974,501.927 325.5,499.5C 325.328,498.508 325.662,497.842 326.5,497.5C 329.154,500.79 329.154,504.124 326.5,507.5C 323.536,509.962 320.703,512.629 318,515.5C 317.186,517.902 317.353,520.235 318.5,522.5C 320.167,523.667 321.833,524.833 323.5,526C 333.885,526.87 344.218,526.536 354.5,525C 360.123,523.547 363.456,520.047 364.5,514.5C 365.835,509.816 365.335,505.149 363,500.5C 360.277,492.126 356.277,484.459 351,477.5C 347.054,473.555 342.554,470.389 337.5,468C 335.167,467.333 332.833,467.333 330.5,468C 328.11,469.521 325.777,471.021 323.5,472.5C 318.818,468.98 314.984,464.647 312,459.5C 311.501,454.177 311.334,448.844 311.5,443.5C 312.653,437.681 312.819,431.681 312,425.5C 310.13,411.841 303.63,401.174 292.5,393.5C 292.706,391.451 293.539,391.117 295,392.5C 295.953,389.568 296.453,386.568 296.5,383.5C 298.93,372.861 301.93,362.361 305.5,352C 314.659,331.023 322.326,309.523 328.5,287.5C 329.621,285.259 330.787,282.925 332,280.5C 334.479,278.034 336.979,275.701 339.5,273.5C 344.312,271.284 348.979,268.784 353.5,266C 359.49,263.726 365.49,261.56 371.5,259.5C 399.33,251.248 425.33,239.248 449.5,223.5 Z"/></g>
<g><path style="opacity:1" fill="#1f1711" d="M 220.5,449.5 C 220.932,452.877 220.265,455.877 218.5,458.5C 220.016,449.077 219.516,439.743 217,430.5C 216.325,425.488 214.325,421.155 211,417.5C 209.989,418.056 209.156,418.722 208.5,419.5C 208.959,415.18 210.792,414.513 214,417.5C 218.406,427.699 220.573,438.365 220.5,449.5 Z"/></g>
<g><path style="opacity:1" fill="#32241b" d="M 193.5,432.5 C 195.725,438.198 196.558,444.198 196,450.5C 194.675,444.566 193.842,438.566 193.5,432.5 Z"/></g>
<g><path style="opacity:1" fill="#221a11" d="M 208.5,419.5 C 205.434,433.62 207.768,446.62 215.5,458.5C 213.983,458.489 212.816,457.823 212,456.5C 205.031,444.519 203.864,432.186 208.5,419.5 Z"/></g>
<g><path style="opacity:1" fill="#a97b5f" d="M 177.5,433.5 C 178.496,433.414 179.329,433.748 180,434.5C 184.076,444.056 188.909,453.223 194.5,462C 193.944,462.383 193.611,462.883 193.5,463.5C 187.184,467.822 181.184,472.489 175.5,477.5C 168.388,477.278 161.388,477.278 154.5,477.5C 153.357,474.024 153.19,470.358 154,466.5C 158.898,453.356 166.731,442.356 177.5,433.5 Z"/></g>
<g><path style="opacity:1" fill="#ad7f62" d="M 311.5,443.5 C 311.334,448.844 311.501,454.177 312,459.5C 314.984,464.647 318.818,468.98 323.5,472.5C 324.179,478.31 321.513,482.144 315.5,484C 312.746,484.272 310.079,484.772 307.5,485.5C 305.956,485.297 304.622,484.63 303.5,483.5C 299.505,480.038 295.839,476.205 292.5,472C 288.268,469.725 284.268,467.225 280.5,464.5C 281.148,462.914 281.648,461.247 282,459.5C 285.702,455.5 289.535,451.667 293.5,448C 298.604,444.536 304.271,442.369 310.5,441.5C 311.298,441.957 311.631,442.624 311.5,443.5 Z"/></g>
<g><path style="opacity:1" fill="#855e47" d="M 364.5,514.5 C 353.12,508.187 340.453,505.853 326.5,507.5C 329.154,504.124 329.154,500.79 326.5,497.5C 327.335,496.057 328.668,495.057 330.5,494.5C 322.184,492.845 314.518,489.845 307.5,485.5C 310.079,484.772 312.746,484.272 315.5,484C 321.513,482.144 324.179,478.31 323.5,472.5C 325.777,471.021 328.11,469.521 330.5,468C 332.833,467.333 335.167,467.333 337.5,468C 342.554,470.389 347.054,473.555 351,477.5C 356.277,484.459 360.277,492.126 363,500.5C 365.335,505.149 365.835,509.816 364.5,514.5 Z"/></g>
<g><path style="opacity:0.511" fill="#0e0907" d="M 144.5,223.5 C 145.5,223.5 146.5,223.5 147.5,223.5C 158.57,233.87 170.57,243.037 183.5,251C 197.9,258.185 212.566,264.685 227.5,270.5C 230.578,273.588 233.911,276.255 237.5,278.5C 237.846,275.115 238.512,271.782 239.5,268.5C 239.981,266.269 240.648,266.102 241.5,268C 239.411,275.523 237.244,283.023 235,290.5C 221.278,321.293 209.778,352.96 200.5,385.5C 199.076,387.515 198.41,389.848 198.5,392.5C 196.225,401.233 194.725,410.233 194,419.5C 193.009,418.57 192.509,417.404 192.5,416C 193.724,408.835 194.557,401.668 195,394.5C 184.238,405.353 178.404,418.353 177.5,433.5C 166.731,442.356 158.898,453.356 154,466.5C 153.19,470.358 153.357,474.024 154.5,477.5C 156.303,481.768 158.637,485.768 161.5,489.5C 161.03,490.463 160.363,490.463 159.5,489.5C 147.33,490.056 136.33,493.89 126.5,501C 125.29,502.039 124.29,503.206 123.5,504.5C 113.336,513.411 115.002,519.578 128.5,523C 148.231,524.865 166.231,520.198 182.5,509C 189.492,503.059 189.159,497.892 181.5,493.5C 173.307,490.726 171.307,485.393 175.5,477.5C 181.184,472.489 187.184,467.822 193.5,463.5C 196.525,463.877 199.525,464.044 202.5,464C 201.235,462.663 200.735,461.163 201,459.5C 202.458,461.96 204.291,464.127 206.5,466C 210.855,467.846 215.188,469.679 219.5,471.5C 229.525,474.935 239.859,476.269 250.5,475.5C 260.716,475.872 270.05,473.205 278.5,467.5C 275.58,465.778 273.747,463.445 273,460.5C 275.185,462.54 277.685,463.874 280.5,464.5C 284.268,467.225 288.268,469.725 292.5,472C 295.839,476.205 299.505,480.038 303.5,483.5C 304.622,484.63 305.956,485.297 307.5,485.5C 314.518,489.845 322.184,492.845 330.5,494.5C 328.668,495.057 327.335,496.057 326.5,497.5C 325.662,497.842 325.328,498.508 325.5,499.5C 324.009,497.873 322.509,496.207 321,494.5C 314.663,492.415 308.497,489.915 302.5,487C 297.133,481.968 292.133,476.635 287.5,471C 285.649,470.163 283.816,469.329 282,468.5C 262.465,479.238 241.965,481.405 220.5,475C 212.728,470.866 204.562,467.699 196,465.5C 187.867,469.895 181.2,475.895 176,483.5C 175.349,485.235 175.515,486.902 176.5,488.5C 181.104,490.257 185.104,492.924 188.5,496.5C 189.806,500.207 189.64,503.874 188,507.5C 181.171,514.501 173.004,519.335 163.5,522C 150.301,526.487 136.967,527.154 123.5,524C 120.157,522.078 117.323,519.578 115,516.5C 114.402,512.947 115.069,509.614 117,506.5C 127.808,495.346 140.975,488.846 156.5,487C 150.039,478.899 148.872,470.065 153,460.5C 159.312,449.514 167.145,439.681 176.5,431C 176.675,423.457 178.175,415.957 181,408.5C 185.58,401.839 190.747,395.672 196.5,390C 207.718,353.346 220.718,317.346 235.5,282C 233.5,278.667 230.833,276 227.5,274C 209.892,266.196 192.559,257.862 175.5,249C 164.37,241.361 154.037,232.861 144.5,223.5 Z"/></g>
<g><path style="opacity:1" fill="#89624a" d="M 175.5,477.5 C 171.307,485.393 173.307,490.726 181.5,493.5C 174.289,493.761 166.955,493.927 159.5,494C 158.272,492.51 158.272,491.01 159.5,489.5C 160.363,490.463 161.03,490.463 161.5,489.5C 158.637,485.768 156.303,481.768 154.5,477.5C 161.388,477.278 168.388,477.278 175.5,477.5 Z"/></g>
<g><path style="opacity:1" fill="#aa7c60" d="M 159.5,489.5 C 158.272,491.01 158.272,492.51 159.5,494C 166.955,493.927 174.289,493.761 181.5,493.5C 189.159,497.892 189.492,503.059 182.5,509C 166.231,520.198 148.231,524.865 128.5,523C 115.002,519.578 113.336,513.411 123.5,504.5C 124.29,503.206 125.29,502.039 126.5,501C 136.33,493.89 147.33,490.056 159.5,489.5 Z"/></g>
<g><path style="opacity:1" fill="#bf9a81" d="M 123.5,504.5 C 129.172,501.691 135.172,500.858 141.5,502C 142.729,503.529 144.229,504.696 146,505.5C 146.729,511.773 144.062,514.106 138,512.5C 133.03,515.464 128.363,515.131 124,511.5C 123.503,509.19 123.337,506.857 123.5,504.5 Z"/></g>
<g><path style="opacity:1" fill="#a6795e" d="M 364.5,514.5 C 363.456,520.047 360.123,523.547 354.5,525C 344.218,526.536 333.885,526.87 323.5,526C 321.833,524.833 320.167,523.667 318.5,522.5C 317.353,520.235 317.186,517.902 318,515.5C 320.703,512.629 323.536,509.962 326.5,507.5C 340.453,505.853 353.12,508.187 364.5,514.5 Z"/></g>
<g><path style="opacity:1" fill="#be9a81" d="M 321.5,515.5 C 326.13,515.494 330.463,516.494 334.5,518.5C 334.64,520.124 333.973,521.29 332.5,522C 329.167,522.667 325.833,522.667 322.5,522C 320.316,520.102 319.983,517.936 321.5,515.5 Z"/></g>
</svg>
