<?xml version="1.0" encoding="UTF-8"?>
<!DOCTYPE svg PUBLIC "-//W3C//DTD SVG 1.1//EN" "http://www.w3.org/Graphics/SVG/1.1/DTD/svg11.dtd">
<svg xmlns="http://www.w3.org/2000/svg" version="1.1" width="570px" height="570px" style="shape-rendering:geometricPrecision; text-rendering:geometricPrecision; image-rendering:optimizeQuality; fill-rule:evenodd; clip-rule:evenodd" xmlns:xlink="http://www.w3.org/1999/xlink">
<g><path style="opacity:0.614" fill="#e4aab6" d="M 356.5,145.5 C 356.167,146.5 355.5,147.167 354.5,147.5C 343.857,116.058 324.857,90.891 297.5,72C 293.423,69.2951 289.09,67.1284 284.5,65.5C 256.245,51.3194 226.911,48.8194 196.5,58C 190.843,60.4934 185.51,63.4934 180.5,67C 178.076,69.1784 176.41,71.845 175.5,75C 175.734,76.7324 176.734,77.5658 178.5,77.5C 180.135,76.9537 181.801,76.6204 183.5,76.5C 194.39,75.5556 202.723,79.5556 208.5,88.5C 212.743,96.6193 213.243,104.953 210,113.5C 200.619,124.545 191.619,135.879 183,147.5C 179.339,153.628 177.505,160.294 177.5,167.5C 176.391,167.443 175.391,167.11 174.5,166.5C 175.239,161.401 176.405,156.401 178,151.5C 180.416,146.999 183.083,142.666 186,138.5C 192.333,131.5 198.667,124.5 205,117.5C 212.18,104.786 210.68,93.2858 200.5,83C 197.508,80.8899 194.175,79.5566 190.5,79C 185.157,78.8539 179.824,78.8539 174.5,79C 172.637,77.5822 172.137,75.7489 173,73.5C 175.833,68 180,63.8333 185.5,61C 207.462,49.6965 230.462,47.0298 254.5,53C 295.465,61.8948 325.965,84.7282 346,121.5C 350.382,129.249 353.882,137.249 356.5,145.5 Z"/></g>
<g><path style="opacity:1" fill="#faf8e2" d="M 284.5,65.5 C 283.448,65.3505 282.448,65.5172 281.5,66C 278.997,68.9677 276.497,71.801 274,74.5C 267.737,74.3604 261.403,73.6937 255,72.5C 250.831,74.6831 246.498,75.0164 242,73.5C 239.264,77.179 235.764,78.679 231.5,78C 233.019,79.3513 234.352,80.8513 235.5,82.5C 234.757,83.1818 234.091,83.8485 233.5,84.5C 222.359,74.8398 209.359,70.0064 194.5,70C 193.944,70.3826 193.611,70.8826 193.5,71.5C 190.581,74.1073 187.248,75.774 183.5,76.5C 181.801,76.6204 180.135,76.9537 178.5,77.5C 176.734,77.5658 175.734,76.7324 175.5,75C 176.41,71.845 178.076,69.1784 180.5,67C 185.51,63.4934 190.843,60.4934 196.5,58C 226.911,48.8194 256.245,51.3194 284.5,65.5 Z"/></g>
<g><path style="opacity:1" fill="#f9e4d7" d="M 193.5,71.5 C 213.593,74.4416 227.76,85.1082 236,103.5C 239.483,113.914 241.816,124.58 243,135.5C 243.671,136.252 244.504,136.586 245.5,136.5C 241.375,142.459 236.375,147.626 230.5,152C 229.552,152.483 228.552,152.649 227.5,152.5C 227.343,151.127 227.51,149.793 228,148.5C 229.385,147.449 230.385,146.116 231,144.5C 235.048,129.466 234.048,114.799 228,100.5C 222.776,93.6721 216.276,89.6721 208.5,88.5C 202.723,79.5556 194.39,75.5556 183.5,76.5C 187.248,75.774 190.581,74.1073 193.5,71.5 Z"/></g>
<g><path style="opacity:1" fill="#f9e4d7" d="M 262.5,81.5 C 261.624,81.3691 260.957,81.7025 260.5,82.5C 289.126,98.1199 297.96,121.453 287,152.5C 283.385,160.756 278.552,168.089 272.5,174.5C 278.705,157.698 280.205,140.365 277,122.5C 273.638,113.123 270.305,103.789 267,94.5C 262.555,90.2089 257.722,86.5422 252.5,83.5C 252.196,82.8501 251.863,82.1835 251.5,81.5C 255.315,80.1923 258.981,80.1923 262.5,81.5 Z"/></g>
<g><path style="opacity:1" fill="#f9f6d9" d="M 284.5,65.5 C 289.09,67.1284 293.423,69.2951 297.5,72C 324.857,90.891 343.857,116.058 354.5,147.5C 342.501,143.865 330.501,143.698 318.5,147C 315.377,148.882 312.711,151.215 310.5,154C 307.644,155.259 304.977,156.759 302.5,158.5C 301.957,158.44 301.624,158.107 301.5,157.5C 311.344,142.062 311.844,126.395 303,110.5C 293.597,95.054 280.097,85.3874 262.5,81.5C 258.981,80.1923 255.315,80.1923 251.5,81.5C 251.863,82.1835 252.196,82.8501 252.5,83.5C 252.509,85.3084 252.009,86.9751 251,88.5C 248.086,90.1784 245.586,92.1784 243.5,94.5C 239.833,91.5 236.5,88.1667 233.5,84.5C 234.091,83.8485 234.757,83.1818 235.5,82.5C 234.352,80.8513 233.019,79.3513 231.5,78C 235.764,78.679 239.264,77.179 242,73.5C 246.498,75.0164 250.831,74.6831 255,72.5C 261.403,73.6937 267.737,74.3604 274,74.5C 276.497,71.801 278.997,68.9677 281.5,66C 282.448,65.5172 283.448,65.3505 284.5,65.5 Z"/></g>
<g><path style="opacity:1" fill="#f6ccd5" d="M 262.5,81.5 C 280.097,85.3874 293.597,95.054 303,110.5C 311.844,126.395 311.344,142.062 301.5,157.5C 301.624,158.107 301.957,158.44 302.5,158.5C 300.42,160.573 298.754,162.907 297.5,165.5C 296.833,165.833 296.167,166.167 295.5,166.5C 286.04,178.574 274.04,187.241 259.5,192.5C 258.068,192.267 257.568,191.6 258,190.5C 263.53,185.752 268.364,180.419 272.5,174.5C 278.552,168.089 283.385,160.756 287,152.5C 297.96,121.453 289.126,98.1199 260.5,82.5C 260.957,81.7025 261.624,81.3691 262.5,81.5 Z"/></g>
<g><path style="opacity:1" fill="#f6ced6" d="M 233.5,84.5 C 236.5,88.1667 239.833,91.5 243.5,94.5C 248.483,102.737 251.483,111.737 252.5,121.5C 252.257,127.602 249.923,132.602 245.5,136.5C 244.504,136.586 243.671,136.252 243,135.5C 241.816,124.58 239.483,113.914 236,103.5C 227.76,85.1082 213.593,74.4416 193.5,71.5C 193.611,70.8826 193.944,70.3826 194.5,70C 209.359,70.0064 222.359,74.8398 233.5,84.5 Z"/></g>
<g><path style="opacity:1" fill="#f9f6d8" d="M 252.5,83.5 C 257.722,86.5422 262.555,90.2089 267,94.5C 270.305,103.789 273.638,113.123 277,122.5C 280.205,140.365 278.705,157.698 272.5,174.5C 268.364,180.419 263.53,185.752 258,190.5C 257.568,191.6 258.068,192.267 259.5,192.5C 274.04,187.241 286.04,178.574 295.5,166.5C 289.054,185.553 292.054,202.886 304.5,218.5C 301.596,220.295 298.596,222.128 295.5,224C 287.209,226.317 278.875,228.65 270.5,231C 265.538,231.873 260.538,232.373 255.5,232.5C 252.41,232.478 249.743,231.812 247.5,230.5C 249.224,224.437 250.557,218.27 251.5,212C 245.124,179.113 225.124,164.779 191.5,169C 189.146,169.847 186.812,170.68 184.5,171.5C 181.968,170.404 179.635,169.071 177.5,167.5C 177.505,160.294 179.339,153.628 183,147.5C 191.619,135.879 200.619,124.545 210,113.5C 213.243,104.953 212.743,96.6193 208.5,88.5C 216.276,89.6721 222.776,93.6721 228,100.5C 234.048,114.799 235.048,129.466 231,144.5C 230.385,146.116 229.385,147.449 228,148.5C 227.51,149.793 227.343,151.127 227.5,152.5C 228.552,152.649 229.552,152.483 230.5,152C 236.375,147.626 241.375,142.459 245.5,136.5C 249.923,132.602 252.257,127.602 252.5,121.5C 251.483,111.737 248.483,102.737 243.5,94.5C 245.586,92.1784 248.086,90.1784 251,88.5C 252.009,86.9751 252.509,85.3084 252.5,83.5 Z"/></g>
<g><path style="opacity:0.54" fill="#933431" d="M 402.5,188.5 C 401.599,189.29 400.932,190.29 400.5,191.5C 397.174,197.84 391.841,201.173 384.5,201.5C 376.359,200.01 368.693,197.343 361.5,193.5C 356.127,189.129 351.461,184.129 347.5,178.5C 342.656,170.145 342.49,161.812 347,153.5C 348.774,152.035 350.608,150.702 352.5,149.5C 353.5,149.167 354.167,148.5 354.5,147.5C 355.5,147.167 356.167,146.5 356.5,145.5C 365.243,141.962 374.243,139.295 383.5,137.5C 396.871,138.705 404.038,146.038 405,159.5C 406.019,169.374 405.185,179.04 402.5,188.5 Z"/></g>
<g><path style="opacity:1" fill="#de5e5e" d="M 374.5,141.5 C 375.574,142.885 376.907,144.051 378.5,145C 377.825,147.242 378.325,149.409 380,151.5C 379.636,162.63 384.802,169.63 395.5,172.5C 397.071,175.093 399.404,176.093 402.5,175.5C 402.291,183.079 399.958,189.913 395.5,196C 385.329,200.853 375.662,200.02 366.5,193.5C 361.675,184.549 357.508,175.215 354,165.5C 353.501,160.845 353.334,156.179 353.5,151.5C 359.641,146.659 366.641,143.326 374.5,141.5 Z"/></g>
<g><path style="opacity:1" fill="#e5817d" d="M 402.5,175.5 C 399.404,176.093 397.071,175.093 395.5,172.5C 384.802,169.63 379.636,162.63 380,151.5C 378.325,149.409 377.825,147.242 378.5,145C 376.907,144.051 375.574,142.885 374.5,141.5C 383.914,138.725 392.08,140.725 399,147.5C 400.562,149.957 401.562,152.624 402,155.5C 402.5,162.158 402.666,168.825 402.5,175.5 Z"/></g>
<g><path style="opacity:1" fill="#f9f6d8" d="M 352.5,149.5 C 350.608,150.702 348.774,152.035 347,153.5C 342.49,161.812 342.656,170.145 347.5,178.5C 340.913,180.461 333.913,181.128 326.5,180.5C 318.803,174.776 314.469,167.109 313.5,157.5C 313.5,156.167 313.5,154.833 313.5,153.5C 314.29,152.206 315.29,151.039 316.5,150C 328.521,144.288 340.521,144.121 352.5,149.5 Z"/></g>
<g><path style="opacity:1" fill="#e1abb5" d="M 354.5,147.5 C 354.167,148.5 353.5,149.167 352.5,149.5C 340.521,144.121 328.521,144.288 316.5,150C 315.29,151.039 314.29,152.206 313.5,153.5C 307.486,156.516 302.153,160.516 297.5,165.5C 298.754,162.907 300.42,160.573 302.5,158.5C 304.977,156.759 307.644,155.259 310.5,154C 312.711,151.215 315.377,148.882 318.5,147C 330.501,143.698 342.501,143.865 354.5,147.5 Z"/></g>
<g><path style="opacity:1" fill="#c84b4f" d="M 353.5,151.5 C 353.334,156.179 353.501,160.845 354,165.5C 357.508,175.215 361.675,184.549 366.5,193.5C 352.798,186.763 345.631,175.763 345,160.5C 346.659,156.342 349.492,153.342 353.5,151.5 Z"/></g>
<g><path style="opacity:1" fill="#f9e4d7" d="M 313.5,153.5 C 313.5,154.833 313.5,156.167 313.5,157.5C 312.061,156.491 310.728,156.824 309.5,158.5C 307.87,161.276 307.203,164.276 307.5,167.5C 306.074,169.679 305.408,172.179 305.5,175C 306.859,186.551 311.359,196.718 319,205.5C 328.702,215.532 340.202,222.698 353.5,227C 356.482,227.498 359.482,227.665 362.5,227.5C 360.167,228.167 357.833,228.833 355.5,229.5C 343.328,229.96 331.328,228.96 319.5,226.5C 303.069,218.015 294.403,204.348 293.5,185.5C 293.633,178.552 294.967,171.885 297.5,165.5C 302.153,160.516 307.486,156.516 313.5,153.5 Z"/></g>
<g><path style="opacity:1" fill="#f6cdd5" d="M 313.5,157.5 C 314.469,167.109 318.803,174.776 326.5,180.5C 332.808,185.661 339.808,189.828 347.5,193C 345.19,193.497 342.857,193.663 340.5,193.5C 328.249,192.461 318.416,187.127 311,177.5C 309.132,174.395 307.965,171.062 307.5,167.5C 307.203,164.276 307.87,161.276 309.5,158.5C 310.728,156.824 312.061,156.491 313.5,157.5 Z"/></g>
<g><path style="opacity:0.992" fill="#a46d36" d="M 389.5,154.5 C 391.344,155.204 391.844,156.537 391,158.5C 390.29,159.973 389.124,160.64 387.5,160.5C 387.704,158.315 388.37,156.315 389.5,154.5 Z"/></g>
<g><path style="opacity:1" fill="#e47d79" d="M 183.5,172.5 C 182.375,174.129 181.041,175.629 179.5,177C 171.705,181.348 163.372,182.348 154.5,180C 152.333,176.667 149.666,173.834 146.5,171.5C 147.673,169.496 149.34,167.996 151.5,167C 162.887,165.051 173.554,166.884 183.5,172.5 Z"/></g>
<g><path style="opacity:1" fill="#f9f6d9" d="M 242.5,193.5 C 241.167,193.5 240.5,194.167 240.5,195.5C 236.685,206.979 229.351,215.312 218.5,220.5C 211.714,223.038 204.714,224.871 197.5,226C 190.267,226.817 183.267,226.317 176.5,224.5C 181.394,222.227 185.727,219.227 189.5,215.5C 190.167,215.5 190.5,215.167 190.5,214.5C 207.472,199.311 206.472,185.644 187.5,173.5C 189.148,172.073 191.148,171.24 193.5,171C 211.509,167.452 226.675,172.286 239,185.5C 240.454,188.071 241.62,190.738 242.5,193.5 Z"/></g>
<g><path style="opacity:1" fill="#7b5223" d="M 366.5,170.5 C 367.376,170.369 368.043,170.702 368.5,171.5C 364.422,176.814 363.755,176.481 366.5,170.5 Z"/></g>
<g><path style="opacity:1" fill="#dd5e5e" d="M 146.5,171.5 C 149.666,173.834 152.333,176.667 154.5,180C 163.372,182.348 171.705,181.348 179.5,177C 181.041,175.629 182.375,174.129 183.5,172.5C 183.833,172.5 184.167,172.5 184.5,172.5C 185.492,172.328 186.158,172.662 186.5,173.5C 192.127,177.968 196.961,183.301 201,189.5C 200.785,194.359 199.619,199.025 197.5,203.5C 179.195,217.715 163.695,215.049 151,195.5C 146.804,189.453 144.637,182.787 144.5,175.5C 144.66,173.847 145.326,172.514 146.5,171.5 Z"/></g>
<g><path style="opacity:0.579" fill="#923532" d="M 174.5,166.5 C 175.391,167.11 176.391,167.443 177.5,167.5C 179.635,169.071 181.968,170.404 184.5,171.5C 184.5,171.833 184.5,172.167 184.5,172.5C 184.167,172.5 183.833,172.5 183.5,172.5C 173.554,166.884 162.887,165.051 151.5,167C 149.34,167.996 147.673,169.496 146.5,171.5C 145.326,172.514 144.66,173.847 144.5,175.5C 138.424,188.815 137.924,202.481 143,216.5C 147.269,226.548 154.769,230.048 165.5,227C 174.063,224.387 181.729,220.22 188.5,214.5C 189.107,214.624 189.44,214.957 189.5,215.5C 185.727,219.227 181.394,222.227 176.5,224.5C 173.011,225.658 169.678,226.991 166.5,228.5C 154.779,232.134 146.446,228.467 141.5,217.5C 140.766,216.292 140.433,214.959 140.5,213.5C 140.204,211.597 139.537,209.93 138.5,208.5C 135.906,194.73 138.073,181.73 145,169.5C 148.192,166.32 152.026,164.32 156.5,163.5C 162.559,163.441 168.559,164.441 174.5,166.5 Z"/></g>
<g><path style="opacity:1" fill="#c74a4e" d="M 144.5,175.5 C 144.637,182.787 146.804,189.453 151,195.5C 163.695,215.049 179.195,217.715 197.5,203.5C 195.925,206.582 193.758,209.249 191,211.5C 190.517,212.448 190.351,213.448 190.5,214.5C 190.5,215.167 190.167,215.5 189.5,215.5C 189.44,214.957 189.107,214.624 188.5,214.5C 181.729,220.22 174.063,224.387 165.5,227C 154.769,230.048 147.269,226.548 143,216.5C 137.924,202.481 138.424,188.815 144.5,175.5 Z"/></g>
<g><path style="opacity:1" fill="#f9e3d6" d="M 347.5,178.5 C 351.461,184.129 356.127,189.129 361.5,193.5C 354.319,194.03 347.319,194.03 340.5,193.5C 342.857,193.663 345.19,193.497 347.5,193C 339.808,189.828 332.808,185.661 326.5,180.5C 333.913,181.128 340.913,180.461 347.5,178.5 Z"/></g>
<g><path style="opacity:1" fill="#f9f6d9" d="M 307.5,167.5 C 307.965,171.062 309.132,174.395 311,177.5C 318.416,187.127 328.249,192.461 340.5,193.5C 347.319,194.03 354.319,194.03 361.5,193.5C 368.693,197.343 376.359,200.01 384.5,201.5C 391.841,201.173 397.174,197.84 400.5,191.5C 402.017,191.511 403.184,192.177 404,193.5C 411.191,203.853 413.358,215.187 410.5,227.5C 401.454,232.508 391.787,234.175 381.5,232.5C 385.399,228.382 388.565,223.715 391,218.5C 391.814,216.098 391.647,213.765 390.5,211.5C 383.602,220.953 374.269,226.286 362.5,227.5C 359.482,227.665 356.482,227.498 353.5,227C 340.202,222.698 328.702,215.532 319,205.5C 311.359,196.718 306.859,186.551 305.5,175C 305.408,172.179 306.074,169.679 307.5,167.5 Z"/></g>
<g><path style="opacity:1" fill="#805225" d="M 154.5,182.5 C 158.17,183.193 159.17,185.193 157.5,188.5C 155.022,187.278 154.022,185.278 154.5,182.5 Z"/></g>
<g><path style="opacity:1" fill="#7a5122" d="M 391.5,181.5 C 393.81,183.278 393.644,185.278 391,187.5C 390.51,185.455 390.677,183.455 391.5,181.5 Z"/></g>
<g><path style="opacity:1" fill="#f6ccd5" d="M 205.5,236.5 C 204.5,236.5 203.5,236.5 202.5,236.5C 197.156,236.666 191.823,236.499 186.5,236C 184.956,235.71 183.623,235.044 182.5,234C 195.703,232.539 207.703,228.039 218.5,220.5C 229.351,215.312 236.685,206.979 240.5,195.5C 241.397,194.402 242.23,194.402 243,195.5C 245.22,213.229 238.054,225.396 221.5,232C 216.289,234.016 210.956,235.516 205.5,236.5 Z"/></g>
<g><path style="opacity:1" fill="#9a3d38" d="M 186.5,173.5 C 186.833,173.5 187.167,173.5 187.5,173.5C 206.472,185.644 207.472,199.311 190.5,214.5C 190.351,213.448 190.517,212.448 191,211.5C 193.758,209.249 195.925,206.582 197.5,203.5C 199.619,199.025 200.785,194.359 201,189.5C 196.961,183.301 192.127,177.968 186.5,173.5 Z"/></g>
<g><path style="opacity:0.961" fill="#805225" d="M 182.5,194.5 C 186.17,195.193 187.17,197.193 185.5,200.5C 183.022,199.278 182.022,197.278 182.5,194.5 Z"/></g>
<g><path style="opacity:1" fill="#f9e3d7" d="M 242.5,193.5 C 246.858,198.342 249.191,204.175 249.5,211C 247.038,232.598 236.705,249.265 218.5,261C 211.918,264.561 204.918,266.728 197.5,267.5C 185.424,267.918 174.09,265.251 163.5,259.5C 163.5,259.167 163.5,258.833 163.5,258.5C 182.218,260.047 196.218,252.713 205.5,236.5C 210.956,235.516 216.289,234.016 221.5,232C 238.054,225.396 245.22,213.229 243,195.5C 242.23,194.402 241.397,194.402 240.5,195.5C 240.5,194.167 241.167,193.5 242.5,193.5 Z"/></g>
<g><path style="opacity:0.697" fill="#e4acb6" d="M 297.5,165.5 C 294.967,171.885 293.633,178.552 293.5,185.5C 294.403,204.348 303.069,218.015 319.5,226.5C 319.5,226.833 319.5,227.167 319.5,227.5C 317.972,227.517 317.472,228.184 318,229.5C 332.782,244.553 350.782,252.22 372,252.5C 385.452,253.464 396.786,249.131 406,239.5C 408.364,235.781 409.864,231.781 410.5,227.5C 413.358,215.187 411.191,203.853 404,193.5C 403.184,192.177 402.017,191.511 400.5,191.5C 400.932,190.29 401.599,189.29 402.5,188.5C 413.034,200.487 416.534,214.154 413,229.5C 411.888,234.391 409.721,238.725 406.5,242.5C 411.675,246.163 417.009,249.663 422.5,253C 427.7,257.865 432.533,263.032 437,268.5C 441.72,280.342 447.387,291.675 454,302.5C 459.509,318.033 458.509,333.033 451,347.5C 446.775,352.062 442.275,356.229 437.5,360C 429.8,362.917 421.8,364.25 413.5,364C 397.299,372.031 381.632,371.031 366.5,361C 361.979,356.978 357.312,353.144 352.5,349.5C 350.047,352.241 347.714,355.075 345.5,358C 359.882,369.048 371.382,382.548 380,398.5C 380.833,401.833 381.667,405.167 382.5,408.5C 380.814,413.597 378.98,418.597 377,423.5C 378.813,441.726 374.313,458.226 363.5,473C 365.576,475.584 368.243,477.251 371.5,478C 377.5,479 383.5,480 389.5,481C 397.08,485.39 398.08,490.723 392.5,497C 389.785,498.908 386.785,500.241 383.5,501C 374.111,501.312 364.777,500.979 355.5,500C 345.934,501.855 336.6,504.522 327.5,508C 325.333,508.167 323.167,508.333 321,508.5C 309.418,505.855 297.751,503.522 286,501.5C 275.973,504.049 265.806,505.715 255.5,506.5C 252.5,506.333 249.5,506.167 246.5,506C 236.85,502.962 227.017,500.796 217,499.5C 206.39,501.233 196.057,502.899 186,504.5C 179.027,502.763 172.194,500.597 165.5,498C 156.495,497.867 147.495,497.867 138.5,498C 130.094,493.574 129.428,488.241 136.5,482C 142.463,479.069 148.63,478.236 155,479.5C 158.595,478.711 162.095,477.544 165.5,476C 172.785,467.359 182.118,463.026 193.5,463C 187.01,448.962 186.843,434.795 193,420.5C 201.257,403.236 212.257,387.903 226,374.5C 232.501,355.311 231.167,354.311 222,371.5C 206.524,392.997 186.024,400.497 160.5,394C 143.282,396.152 128.782,390.985 117,378.5C 109.548,367.463 107.548,355.463 111,342.5C 112.84,337.49 114.673,332.49 116.5,327.5C 115.06,321.119 115.226,314.786 117,308.5C 122.803,294.694 131.636,283.194 143.5,274C 126.243,262.148 121.077,246.315 128,226.5C 130.766,219.952 134.266,213.952 138.5,208.5C 139.537,209.93 140.204,211.597 140.5,213.5C 139.603,212.402 138.77,212.402 138,213.5C 126.304,228.461 124.637,244.461 133,261.5C 143.689,272.751 156.856,277.751 172.5,276.5C 176.435,275.565 180.435,274.731 184.5,274C 189.368,272.67 193.701,270.504 197.5,267.5C 204.918,266.728 211.918,264.561 218.5,261C 236.705,249.265 247.038,232.598 249.5,211C 249.191,204.175 246.858,198.342 242.5,193.5C 241.62,190.738 240.454,188.071 239,185.5C 226.675,172.286 211.509,167.452 193.5,171C 191.148,171.24 189.148,172.073 187.5,173.5C 187.167,173.5 186.833,173.5 186.5,173.5C 186.158,172.662 185.492,172.328 184.5,172.5C 184.5,172.167 184.5,171.833 184.5,171.5C 186.812,170.68 189.146,169.847 191.5,169C 225.124,164.779 245.124,179.113 251.5,212C 250.557,218.27 249.224,224.437 247.5,230.5C 242.067,241.274 234.733,250.607 225.5,258.5C 227.354,262.221 229.687,265.554 232.5,268.5C 240.323,263.515 246.156,256.848 250,248.5C 252.106,252.604 254.939,256.104 258.5,259C 265.335,259.843 268.835,256.677 269,249.5C 274.256,256.758 280.756,262.591 288.5,267C 293.09,268.615 295.923,267.115 297,262.5C 297.169,254.812 297.669,247.145 298.5,239.5C 307.272,248.052 317.606,253.719 329.5,256.5C 329.895,252.368 330.895,248.368 332.5,244.5C 324.826,240.16 318.826,234.16 314.5,226.5C 310.859,224.19 307.526,221.523 304.5,218.5C 292.054,202.886 289.054,185.553 295.5,166.5C 296.167,166.167 296.833,165.833 297.5,165.5 Z M 240.5,317.5 C 244.88,318.099 245.214,319.099 241.5,320.5C 240.614,319.675 240.281,318.675 240.5,317.5 Z"/></g>
<g><path style="opacity:1" fill="#f9f6d8" d="M 272.5,382.5 C 262.698,384.247 253.031,383.747 243.5,381C 240.344,378.843 237.511,376.343 235,373.5C 233.008,370.214 233.175,367.214 235.5,364.5C 239.249,361.112 243.249,357.945 247.5,355C 252.833,349 258.167,343 263.5,337C 267.465,335.583 269.799,336.916 270.5,341C 275.167,341 279.833,341 284.5,341C 287.203,341.865 288.536,343.699 288.5,346.5C 287.891,350.435 286.891,354.268 285.5,358C 287.344,360.561 287.844,363.394 287,366.5C 283.299,372.935 278.466,378.268 272.5,382.5 Z"/></g>
<g><path style="opacity:1" fill="#f9e4d7" d="M 287.5,369.5 C 306.246,370.712 321.08,363.379 332,347.5C 333.739,343.453 334.239,339.453 333.5,335.5C 334.306,334.272 335.306,333.272 336.5,332.5C 337.254,330.495 338.421,329.828 340,330.5C 343.317,335.645 346.484,340.812 349.5,346C 347.775,351.738 344.442,356.405 339.5,360C 323.24,371.286 305.573,374.786 286.5,370.5C 286.624,369.893 286.957,369.56 287.5,369.5 Z"/></g>
<g><path style="opacity:1" fill="#f6ccd4" d="M 331.5,318.5 C 332.305,323.579 333.971,328.246 336.5,332.5C 335.306,333.272 334.306,334.272 333.5,335.5C 322.23,346.302 308.897,353.135 293.5,356C 306.724,345.275 318.724,333.442 329.5,320.5C 330.167,319.833 330.833,319.167 331.5,318.5 Z"/></g>
<g><path style="opacity:1" fill="#f8e2d5" d="M 293.5,268.5 C 282.5,271.833 271.5,275.167 260.5,278.5C 258.981,275.979 257.314,273.479 255.5,271C 252.508,268.866 249.842,269.032 247.5,271.5C 243.528,275.213 241.362,279.88 241,285.5C 238.15,296.267 241.983,302.934 252.5,305.5C 255.391,305.052 258.058,304.052 260.5,302.5C 268.602,305.278 276.935,307.612 285.5,309.5C 286.947,310.885 287.947,310.552 288.5,308.5C 290.49,309.999 292.823,310.832 295.5,311C 303.519,311.61 311.519,311.443 319.5,310.5C 309.859,315.544 299.526,318.711 288.5,320C 288.167,320.333 287.833,320.667 287.5,321C 288.5,321.167 289.5,321.333 290.5,321.5C 294.149,320.67 297.815,320.004 301.5,319.5C 295.519,323.494 289.185,326.994 282.5,330C 278.666,332.668 275.333,335.835 272.5,339.5C 271.15,338.517 270.15,337.184 269.5,335.5C 267.568,334.48 265.568,334.313 263.5,335C 256.587,342.917 249.253,350.583 241.5,358C 234.465,362.545 230.965,360.712 231,352.5C 235.294,344.063 237.961,335.063 239,325.5C 241.748,323.542 244.582,321.709 247.5,320C 249.885,319.444 252.218,319.61 254.5,320.5C 254.918,321.222 255.584,321.722 256.5,322C 249.219,325.948 244.053,331.782 241,339.5C 240.219,340.944 240.386,342.277 241.5,343.5C 251.217,335.985 261.217,328.985 271.5,322.5C 274.85,322.665 278.183,322.498 281.5,322C 267.367,321.867 253.7,319.367 240.5,314.5C 240.057,299.727 237.391,285.394 232.5,271.5C 235.495,268.675 238.662,266.008 242,263.5C 244.845,259.795 247.678,256.128 250.5,252.5C 252.645,257.149 256.145,260.149 261,261.5C 265.866,260.969 268.866,258.302 270,253.5C 274.532,258.367 279.366,262.867 284.5,267C 287.351,268.289 290.351,268.789 293.5,268.5 Z"/></g>
<g><path style="opacity:1" fill="#f2b9c4" d="M 254.5,320.5 C 259.932,322.281 265.599,322.948 271.5,322.5C 261.217,328.985 251.217,335.985 241.5,343.5C 240.386,342.277 240.219,340.944 241,339.5C 244.053,331.782 249.219,325.948 256.5,322C 255.584,321.722 254.918,321.222 254.5,320.5 Z"/></g>
<g><path style="opacity:1" fill="#f9f6d8" d="M 317.5,314.5 C 323.446,313.03 327.446,315.03 329.5,320.5C 318.724,333.442 306.724,345.275 293.5,356C 308.897,353.135 322.23,346.302 333.5,335.5C 334.239,339.453 333.739,343.453 332,347.5C 321.08,363.379 306.246,370.712 287.5,369.5C 290.124,365.313 290.124,361.146 287.5,357C 293.034,342.037 288.034,336.204 272.5,339.5C 275.333,335.835 278.666,332.668 282.5,330C 289.185,326.994 295.519,323.494 301.5,319.5C 306.973,318.134 312.306,316.468 317.5,314.5 Z"/></g>
<g><path style="opacity:1" fill="#f6dfd3" d="M 331.5,318.5 C 330.833,319.167 330.167,319.833 329.5,320.5C 327.446,315.03 323.446,313.03 317.5,314.5C 321.904,312.122 326.237,309.456 330.5,306.5C 332.538,310.412 332.871,314.412 331.5,318.5 Z"/></g>
<g><path style="opacity:0.996" fill="#b8514c" d="M 288.5,308.5 C 287.947,310.552 286.947,310.885 285.5,309.5C 286.221,307.618 287.221,307.285 288.5,308.5 Z"/></g>
<g><path style="opacity:1" fill="#f2b9c4" d="M 222.5,315.5 C 221.833,320.833 221.167,326.167 220.5,331.5C 215.284,353.755 203.617,371.922 185.5,386C 179.963,389.004 174.296,391.504 168.5,393.5C 165.285,393.095 162.285,392.095 159.5,390.5C 183.879,377.278 201.045,357.611 211,331.5C 214.483,321.552 217.65,311.552 220.5,301.5C 221.251,302.376 221.751,303.376 222,304.5C 222.499,308.152 222.665,311.818 222.5,315.5 Z"/></g>
<g><path style="opacity:1" fill="#f9e4d7" d="M 162.5,302.5 C 159.496,307.138 155.996,311.472 152,315.5C 151.209,316.745 150.709,318.078 150.5,319.5C 143.659,326.419 135.326,330.419 125.5,331.5C 121.217,330.713 118.717,328.046 118,323.5C 117.217,316.719 118.384,310.385 121.5,304.5C 123.765,310.417 128.099,313.084 134.5,312.5C 138.22,312.384 141.887,311.884 145.5,311C 151.147,308.176 156.814,305.343 162.5,302.5 Z"/></g>
<g><path style="opacity:1" fill="#bd5350" d="M 260.5,278.5 C 262.987,286.58 262.987,294.58 260.5,302.5C 258.058,304.052 255.391,305.052 252.5,305.5C 241.983,302.934 238.15,296.267 241,285.5C 241.362,279.88 243.528,275.213 247.5,271.5C 249.842,269.032 252.508,268.866 255.5,271C 257.314,273.479 258.981,275.979 260.5,278.5 Z"/></g>
<g><path style="opacity:1" fill="#e78883" d="M 249.5,292.5 C 250.048,294.532 251.381,295.532 253.5,295.5C 253.263,294.209 253.596,293.209 254.5,292.5C 256.019,293.41 257.685,294.243 259.5,295C 260.337,296.011 260.67,297.178 260.5,298.5C 259.214,302.153 256.547,303.82 252.5,303.5C 248.443,303.64 245.443,301.974 243.5,298.5C 244.5,295.5 246.5,293.5 249.5,292.5 Z"/></g>
<g><path style="opacity:1" fill="#f9e3d7" d="M 234.5,286.5 C 240.014,309.334 238.181,331.667 229,353.5C 222.683,370.815 211.183,383.315 194.5,391C 186.036,394.342 177.369,395.175 168.5,393.5C 174.296,391.504 179.963,389.004 185.5,386C 203.617,371.922 215.284,353.755 220.5,331.5C 220.81,332.738 221.31,332.738 222,331.5C 228.808,317.273 232.974,302.273 234.5,286.5 Z"/></g>
<g><path style="opacity:1" fill="#bc514d" d="M 316.5,262.5 C 324.536,270.871 326.869,280.537 323.5,291.5C 322.646,290.368 322.646,289.035 323.5,287.5C 324.785,276.87 321.119,268.037 312.5,261C 307.773,259.721 305.273,261.555 305,266.5C 303.968,274.331 304.635,281.998 307,289.5C 307.708,290.381 308.542,291.047 309.5,291.5C 309.611,292.117 309.944,292.617 310.5,293C 314.404,293.288 318.071,293.454 321.5,293.5C 315.388,296.928 310.221,295.928 306,290.5C 303.133,283.098 301.966,275.431 302.5,267.5C 304.611,258.951 309.278,257.285 316.5,262.5 Z"/></g>
<g><path style="opacity:1" fill="#f9e4d7" d="M 222.5,315.5 C 222.665,311.818 222.499,308.152 222,304.5C 221.751,303.376 221.251,302.376 220.5,301.5C 217.65,311.552 214.483,321.552 211,331.5C 201.045,357.611 183.879,377.278 159.5,390.5C 138.329,393.498 122.829,385.498 113,366.5C 111.356,360.723 111.189,355.057 112.5,349.5C 112.622,353.147 114.288,355.981 117.5,358C 134.73,367.312 152.397,367.978 170.5,360C 173.672,358.303 176.672,356.47 179.5,354.5C 193.505,345.988 203.339,333.988 209,318.5C 212.492,306.019 215.159,293.353 217,280.5C 218.333,275.167 219.667,275.167 221,280.5C 223.339,292.252 223.839,303.918 222.5,315.5 Z"/></g>
<g><path style="opacity:1" fill="#dd615f" d="M 260.5,298.5 C 260.67,297.178 260.337,296.011 259.5,295C 257.685,294.243 256.019,293.41 254.5,292.5C 254.533,288.131 254.2,283.798 253.5,279.5C 253.5,277.833 253.5,276.167 253.5,274.5C 251.833,274.5 250.167,274.5 248.5,274.5C 248.325,276.621 248.659,278.621 249.5,280.5C 249.5,284.5 249.5,288.5 249.5,292.5C 246.5,293.5 244.5,295.5 243.5,298.5C 241.325,289.053 242.659,280.053 247.5,271.5C 252.868,269.939 256.368,271.939 258,277.5C 261.317,284.361 262.15,291.361 260.5,298.5 Z"/></g>
<g><path style="opacity:1" fill="#844929" d="M 253.5,279.5 C 254.2,283.798 254.533,288.131 254.5,292.5C 253.596,293.209 253.263,294.209 253.5,295.5C 251.381,295.532 250.048,294.532 249.5,292.5C 249.5,288.5 249.5,284.5 249.5,280.5C 250.959,280.567 252.292,280.234 253.5,279.5 Z"/></g>
<g><path style="opacity:1" fill="#f2b8c4" d="M 413.5,360.5 C 410.018,363.444 406.018,365.444 401.5,366.5C 402.263,365.732 403.263,365.232 404.5,365C 386.334,359.99 372.167,349.49 362,333.5C 350.59,315.772 346.09,296.438 348.5,275.5C 354.568,307.032 370.234,332.532 395.5,352C 401.117,355.703 407.117,358.536 413.5,360.5 Z"/></g>
<g><path style="opacity:1" fill="#f9f6d8" d="M 162.5,277.5 C 166.634,278.485 170.968,278.818 175.5,278.5C 173.761,287.983 169.428,295.983 162.5,302.5C 156.814,305.343 151.147,308.176 145.5,311C 141.887,311.884 138.22,312.384 134.5,312.5C 128.099,313.084 123.765,310.417 121.5,304.5C 123.345,299.814 125.845,295.48 129,291.5C 134.5,286 140,280.5 145.5,275C 151.029,276.292 156.695,277.125 162.5,277.5 Z"/></g>
<g><path style="opacity:1" fill="#fdf5f4" d="M 253.5,279.5 C 252.292,280.234 250.959,280.567 249.5,280.5C 248.659,278.621 248.325,276.621 248.5,274.5C 250.167,274.5 251.833,274.5 253.5,274.5C 253.5,276.167 253.5,277.833 253.5,279.5 Z"/></g>
<g><path style="opacity:0.998" fill="#f5cdd4" d="M 193.5,273.5 C 185.697,289.811 174.697,303.645 160.5,315C 157.52,317.324 154.187,318.824 150.5,319.5C 150.709,318.078 151.209,316.745 152,315.5C 155.996,311.472 159.496,307.138 162.5,302.5C 169.428,295.983 173.761,287.983 175.5,278.5C 170.968,278.818 166.634,278.485 162.5,277.5C 167.844,277.666 173.177,277.499 178.5,277C 183.506,275.828 188.506,274.661 193.5,273.5 Z"/></g>
<g><path style="opacity:1" fill="#f9f5d8" d="M 324.5,258.5 C 325.833,258.5 327.167,258.5 328.5,258.5C 327.529,268.817 327.362,279.15 328,289.5C 328.113,294.318 328.947,298.984 330.5,303.5C 327.321,306.59 323.654,308.923 319.5,310.5C 311.519,311.443 303.519,311.61 295.5,311C 292.823,310.832 290.49,309.999 288.5,308.5C 287.221,307.285 286.221,307.618 285.5,309.5C 276.935,307.612 268.602,305.278 260.5,302.5C 262.987,294.58 262.987,286.58 260.5,278.5C 271.5,275.167 282.5,271.833 293.5,268.5C 294.167,268.5 294.833,268.5 295.5,268.5C 297.936,268.683 300.103,268.016 302,266.5C 302.399,266.728 302.565,267.062 302.5,267.5C 301.966,275.431 303.133,283.098 306,290.5C 310.221,295.928 315.388,296.928 321.5,293.5C 322.5,293.167 323.167,292.5 323.5,291.5C 326.869,280.537 324.536,270.871 316.5,262.5C 318.9,260.8 321.566,259.467 324.5,258.5 Z"/></g>
<g><path style="opacity:1" fill="#e68783" d="M 316.5,284.5 C 319.631,283.908 321.964,284.908 323.5,287.5C 322.646,289.035 322.646,290.368 323.5,291.5C 323.167,292.5 322.5,293.167 321.5,293.5C 318.071,293.454 314.404,293.288 310.5,293C 309.944,292.617 309.611,292.117 309.5,291.5C 309.622,288.708 310.956,286.708 313.5,285.5C 314.609,285.443 315.609,285.11 316.5,284.5 Z"/></g>
<g><path style="opacity:1" fill="#de6160" d="M 323.5,287.5 C 321.964,284.908 319.631,283.908 316.5,284.5C 316.959,279.485 315.959,274.819 313.5,270.5C 313.978,267.722 312.978,265.722 310.5,264.5C 309.054,265.171 308.388,266.338 308.5,268C 308.387,269.699 309.053,270.866 310.5,271.5C 310.041,276.52 311.041,281.187 313.5,285.5C 310.956,286.708 309.622,288.708 309.5,291.5C 308.542,291.047 307.708,290.381 307,289.5C 304.635,281.998 303.968,274.331 305,266.5C 305.273,261.555 307.773,259.721 312.5,261C 321.119,268.037 324.785,276.87 323.5,287.5 Z"/></g>
<g><path style="opacity:1" fill="#7e4624" d="M 313.5,270.5 C 315.959,274.819 316.959,279.485 316.5,284.5C 315.609,285.11 314.609,285.443 313.5,285.5C 311.041,281.187 310.041,276.52 310.5,271.5C 311.609,271.443 312.609,271.11 313.5,270.5 Z"/></g>
<g><path style="opacity:1" fill="#faf0ee" d="M 313.5,270.5 C 312.609,271.11 311.609,271.443 310.5,271.5C 309.053,270.866 308.387,269.699 308.5,268C 308.388,266.338 309.054,265.171 310.5,264.5C 312.978,265.722 313.978,267.722 313.5,270.5 Z"/></g>
<g><path style="opacity:1" fill="#f9f7d9" d="M 234.5,286.5 C 232.974,302.273 228.808,317.273 222,331.5C 221.31,332.738 220.81,332.738 220.5,331.5C 221.167,326.167 221.833,320.833 222.5,315.5C 223.839,303.918 223.339,292.252 221,280.5C 219.667,275.167 218.333,275.167 217,280.5C 215.159,293.353 212.492,306.019 209,318.5C 203.339,333.988 193.505,345.988 179.5,354.5C 173.198,356.98 166.865,359.48 160.5,362C 147.427,365.872 134.761,364.872 122.5,359C 115.87,355.884 112.87,350.718 113.5,343.5C 114.498,339.342 115.998,335.342 118,331.5C 120.354,331.108 122.854,331.108 125.5,331.5C 135.326,330.419 143.659,326.419 150.5,319.5C 154.187,318.824 157.52,317.324 160.5,315C 174.697,303.645 185.697,289.811 193.5,273.5C 203.416,269.212 213.249,264.545 223,259.5C 229.256,267.426 233.09,276.426 234.5,286.5 Z"/></g>
<g><path style="opacity:1" fill="#f6cdd5" d="M 384.5,253.5 C 386.838,261.841 390.505,269.508 395.5,276.5C 401.003,285.503 408.336,292.669 417.5,298C 416.207,298.49 414.873,298.657 413.5,298.5C 392.426,290.426 378.093,275.759 370.5,254.5C 375.167,254.167 379.833,253.833 384.5,253.5 Z"/></g>
<g><path style="opacity:1" fill="#f2b8c4" d="M 163.5,259.5 C 174.09,265.251 185.424,267.918 197.5,267.5C 193.701,270.504 189.368,272.67 184.5,274C 180.435,274.731 176.435,275.565 172.5,276.5C 164.795,273 157.961,268 152,261.5C 150.878,259.593 150.045,257.593 149.5,255.5C 149.435,255.062 149.601,254.728 150,254.5C 154.189,257.062 158.689,258.729 163.5,259.5 Z"/></g>
<g><path style="opacity:1" fill="#f9f7d9" d="M 352.5,251.5 C 358.429,252.71 364.429,253.71 370.5,254.5C 378.093,275.759 392.426,290.426 413.5,298.5C 416.597,299.978 419.597,301.645 422.5,303.5C 414.17,317.998 401.837,323.498 385.5,320C 377.14,313.115 370.307,304.949 365,295.5C 357.125,281.704 351.958,267.038 349.5,251.5C 350.5,251.5 351.5,251.5 352.5,251.5 Z"/></g>
<g><path style="opacity:1" fill="#f8e1d4" d="M 324.5,258.5 C 321.566,259.467 318.9,260.8 316.5,262.5C 309.278,257.285 304.611,258.951 302.5,267.5C 302.565,267.062 302.399,266.728 302,266.5C 300.103,268.016 297.936,268.683 295.5,268.5C 296.907,266.692 298.074,264.692 299,262.5C 299.588,255.422 299.588,248.422 299,241.5C 306.792,248.307 315.292,253.973 324.5,258.5 Z"/></g>
<g><path style="opacity:1" fill="#f9f6d8" d="M 439.5,279.5 C 439.277,287.553 435.11,291.219 427,290.5C 424.833,290.333 422.667,290.167 420.5,290C 418.51,288.249 416.177,287.249 413.5,287C 407.356,283.677 401.356,280.177 395.5,276.5C 390.505,269.508 386.838,261.841 384.5,253.5C 390.73,251.895 396.73,249.395 402.5,246C 403.833,245.333 405.167,245.333 406.5,246C 421.774,253.106 432.774,264.273 439.5,279.5 Z"/></g>
<g><path style="opacity:1" fill="#f9e4d7" d="M 352.5,251.5 C 351.5,251.5 350.5,251.5 349.5,251.5C 351.958,267.038 357.125,281.704 365,295.5C 370.307,304.949 377.14,313.115 385.5,320C 401.837,323.498 414.17,317.998 422.5,303.5C 419.597,301.645 416.597,299.978 413.5,298.5C 414.873,298.657 416.207,298.49 417.5,298C 408.336,292.669 401.003,285.503 395.5,276.5C 401.356,280.177 407.356,283.677 413.5,287C 416.177,287.249 418.51,288.249 420.5,290C 422.667,290.167 424.833,290.333 427,290.5C 435.11,291.219 439.277,287.553 439.5,279.5C 440.222,279.918 440.722,280.584 441,281.5C 441.93,286.799 442.597,292.133 443,297.5C 443.517,295.169 444.35,293.336 445.5,292C 454.122,305.661 456.622,320.494 453,336.5C 446.104,354.863 432.937,362.863 413.5,360.5C 407.117,358.536 401.117,355.703 395.5,352C 370.234,332.532 354.568,307.032 348.5,275.5C 346.09,296.438 350.59,315.772 362,333.5C 372.167,349.49 386.334,359.99 404.5,365C 403.263,365.232 402.263,365.732 401.5,366.5C 390.857,368.339 380.857,366.505 371.5,361C 346.269,344.392 332.435,320.892 330,290.5C 328.618,275.267 329.785,260.267 333.5,245.5C 339.821,247.843 346.154,249.843 352.5,251.5 Z"/></g>
<g><path style="opacity:1" fill="#f5ccd3" d="M 163.5,258.5 C 163.5,258.833 163.5,259.167 163.5,259.5C 158.689,258.729 154.189,257.062 150,254.5C 149.601,254.728 149.435,255.062 149.5,255.5C 148.349,253.221 147.349,250.888 146.5,248.5C 146.18,245.102 146.513,241.768 147.5,238.5C 150.253,247.251 155.587,253.918 163.5,258.5 Z"/></g>
<g><path style="opacity:1" fill="#f9e3d6" d="M 319.5,227.5 C 333.145,236.227 348.145,240.06 364.5,239C 369.209,237.827 373.542,235.993 377.5,233.5C 378.833,233.167 380.167,232.833 381.5,232.5C 391.787,234.175 401.454,232.508 410.5,227.5C 409.864,231.781 408.364,235.781 406,239.5C 396.786,249.131 385.452,253.464 372,252.5C 350.782,252.22 332.782,244.553 318,229.5C 317.472,228.184 317.972,227.517 319.5,227.5 Z"/></g>
<g><path style="opacity:1" fill="#f2b9c4" d="M 319.5,226.5 C 331.328,228.96 343.328,229.96 355.5,229.5C 357.951,230.894 360.618,231.728 363.5,232C 368.351,232.174 373.018,232.674 377.5,233.5C 373.542,235.993 369.209,237.827 364.5,239C 348.145,240.06 333.145,236.227 319.5,227.5C 319.5,227.167 319.5,226.833 319.5,226.5 Z"/></g>
<g><path style="opacity:1" fill="#f9e5d6" d="M 218.5,220.5 C 207.703,228.039 195.703,232.539 182.5,234C 183.623,235.044 184.956,235.71 186.5,236C 191.823,236.499 197.156,236.666 202.5,236.5C 194.955,237.827 187.288,237.66 179.5,236C 175.003,233.644 170.67,231.144 166.5,228.5C 169.678,226.991 173.011,225.658 176.5,224.5C 183.267,226.317 190.267,226.817 197.5,226C 204.714,224.871 211.714,223.038 218.5,220.5 Z"/></g>
<g><path style="opacity:1" fill="#f9f6d8" d="M 141.5,217.5 C 146.446,228.467 154.779,232.134 166.5,228.5C 170.67,231.144 175.003,233.644 179.5,236C 187.288,237.66 194.955,237.827 202.5,236.5C 203.5,236.5 204.5,236.5 205.5,236.5C 196.218,252.713 182.218,260.047 163.5,258.5C 155.587,253.918 150.253,247.251 147.5,238.5C 146.513,241.768 146.18,245.102 146.5,248.5C 146.631,249.239 146.464,249.906 146,250.5C 139.636,243.373 137.303,235.04 139,225.5C 139.279,222.543 140.113,219.877 141.5,217.5 Z"/></g>
<g><path style="opacity:1" fill="#f9e3d6" d="M 304.5,218.5 C 307.526,221.523 310.859,224.19 314.5,226.5C 318.826,234.16 324.826,240.16 332.5,244.5C 330.895,248.368 329.895,252.368 329.5,256.5C 317.606,253.719 307.272,248.052 298.5,239.5C 297.669,247.145 297.169,254.812 297,262.5C 295.923,267.115 293.09,268.615 288.5,267C 280.756,262.591 274.256,256.758 269,249.5C 268.835,256.677 265.335,259.843 258.5,259C 254.939,256.104 252.106,252.604 250,248.5C 246.156,256.848 240.323,263.515 232.5,268.5C 229.687,265.554 227.354,262.221 225.5,258.5C 234.733,250.607 242.067,241.274 247.5,230.5C 249.743,231.812 252.41,232.478 255.5,232.5C 260.538,232.373 265.538,231.873 270.5,231C 278.875,228.65 287.209,226.317 295.5,224C 298.596,222.128 301.596,220.295 304.5,218.5 Z"/></g>
<g><path style="opacity:1" fill="#c44c4d" d="M 249.5,257.5 C 253.35,257.701 254.35,259.534 252.5,263C 251.207,263.49 249.873,263.657 248.5,263.5C 248.325,261.379 248.659,259.379 249.5,257.5 Z"/></g>
<g><path style="opacity:1" fill="#c55353" d="M 302.5,248.5 C 306.485,248.629 307.818,250.463 306.5,254C 300.546,255.227 299.212,253.394 302.5,248.5 Z"/></g>
<g><path style="opacity:1" fill="#f9e3d6" d="M 140.5,213.5 C 140.433,214.959 140.766,216.292 141.5,217.5C 140.113,219.877 139.279,222.543 139,225.5C 137.303,235.04 139.636,243.373 146,250.5C 146.464,249.906 146.631,249.239 146.5,248.5C 147.349,250.888 148.349,253.221 149.5,255.5C 150.045,257.593 150.878,259.593 152,261.5C 157.961,268 164.795,273 172.5,276.5C 156.856,277.751 143.689,272.751 133,261.5C 124.637,244.461 126.304,228.461 138,213.5C 138.77,212.402 139.603,212.402 140.5,213.5 Z"/></g>
<g><path style="opacity:1" fill="#f5ccd4" d="M 381.5,232.5 C 380.167,232.833 378.833,233.167 377.5,233.5C 373.018,232.674 368.351,232.174 363.5,232C 360.618,231.728 357.951,230.894 355.5,229.5C 357.833,228.833 360.167,228.167 362.5,227.5C 374.269,226.286 383.602,220.953 390.5,211.5C 391.647,213.765 391.814,216.098 391,218.5C 388.565,223.715 385.399,228.382 381.5,232.5 Z"/></g>
<g><path style="opacity:0.994" fill="#835128" d="M 157.5,210.5 C 160.121,211.121 161.788,212.788 162.5,215.5C 161.635,216.583 160.635,216.749 159.5,216C 158.139,214.416 157.472,212.582 157.5,210.5 Z"/></g>
<g><path style="opacity:1" fill="#f9f6d8" d="M 341.5,359.5 C 342.552,359.351 343.552,359.517 344.5,360C 356.124,369.287 365.957,380.12 374,392.5C 377.009,397.514 379.175,402.847 380.5,408.5C 379.289,415.141 377.789,415.141 376,408.5C 376.583,413.049 376.416,417.549 375.5,422C 373.635,423.301 371.635,423.635 369.5,423C 365.323,420.816 361.157,418.65 357,416.5C 353.988,417.508 350.988,418.508 348,419.5C 346.289,419.561 344.956,418.894 344,417.5C 342.268,412.65 341.268,407.65 341,402.5C 336.198,391.916 331.698,381.249 327.5,370.5C 332.161,366.84 336.828,363.174 341.5,359.5 Z"/></g>
<g><path style="opacity:1" fill="#f9edd8" d="M 113.5,343.5 C 112.87,350.718 115.87,355.884 122.5,359C 134.761,364.872 147.427,365.872 160.5,362C 166.865,359.48 173.198,356.98 179.5,354.5C 176.672,356.47 173.672,358.303 170.5,360C 152.397,367.978 134.73,367.312 117.5,358C 114.288,355.981 112.622,353.147 112.5,349.5C 112.205,347.265 112.539,345.265 113.5,343.5 Z"/></g>
<g><path style="opacity:1" fill="#f9e2d6" d="M 235.5,364.5 C 233.175,367.214 233.008,370.214 235,373.5C 237.511,376.343 240.344,378.843 243.5,381C 253.031,383.747 262.698,384.247 272.5,382.5C 262.186,392.245 250.186,395.078 236.5,391C 227.632,383.209 226.132,374.043 232,363.5C 232.414,363.043 232.914,362.709 233.5,362.5C 234.182,363.243 234.849,363.909 235.5,364.5 Z"/></g>
<g><path style="opacity:1" fill="#f7e1d5" d="M 336.5,396.5 C 322.943,397.631 309.61,396.298 296.5,392.5C 300.114,388.257 303.947,384.257 308,380.5C 308.688,379.668 308.521,379.002 307.5,378.5C 300.632,381.761 294.299,385.761 288.5,390.5C 284.537,387.846 280.537,385.18 276.5,382.5C 279.478,379.187 282.478,375.853 285.5,372.5C 298.299,375.382 310.965,374.715 323.5,370.5C 324.167,370.833 324.833,371.167 325.5,371.5C 328.977,379.934 332.643,388.268 336.5,396.5 Z"/></g>
<g><path style="opacity:1" fill="#f6cdd5" d="M 296.5,392.5 C 285.165,403.501 274.998,415.501 266,428.5C 261.427,436.387 257.927,444.721 255.5,453.5C 255.167,453.5 254.833,453.5 254.5,453.5C 251.525,450.677 248.192,448.344 244.5,446.5C 244.5,445.833 244.5,445.167 244.5,444.5C 246.275,434.672 250.441,426.005 257,418.5C 266.685,408.102 277.185,398.769 288.5,390.5C 294.299,385.761 300.632,381.761 307.5,378.5C 308.521,379.002 308.688,379.668 308,380.5C 303.947,384.257 300.114,388.257 296.5,392.5 Z"/></g>
<g><path style="opacity:1" fill="#f9f6d8" d="M 276.5,382.5 C 280.537,385.18 284.537,387.846 288.5,390.5C 277.185,398.769 266.685,408.102 257,418.5C 250.441,426.005 246.275,434.672 244.5,444.5C 242.692,445.317 241.192,444.65 240,442.5C 236.578,437.322 232.911,432.322 229,427.5C 227.002,421.514 224.502,415.847 221.5,410.5C 220.063,406.472 219.397,402.305 219.5,398C 219.767,393.488 220.101,388.988 220.5,384.5C 222.127,382.37 223.96,380.37 226,378.5C 228.846,389 235.679,394.333 246.5,394.5C 251.643,394.505 256.643,393.671 261.5,392C 266.651,389.004 271.651,385.838 276.5,382.5 Z"/></g>
<g><path style="opacity:1" fill="#f9e4d7" d="M 220.5,384.5 C 220.101,388.988 219.767,393.488 219.5,398C 219.397,402.305 220.063,406.472 221.5,410.5C 224.502,415.847 227.002,421.514 229,427.5C 232.911,432.322 236.578,437.322 240,442.5C 241.192,444.65 242.692,445.317 244.5,444.5C 244.5,445.167 244.5,445.833 244.5,446.5C 242.291,457.268 244.957,466.602 252.5,474.5C 253.374,467.512 254.041,460.512 254.5,453.5C 254.833,453.5 255.167,453.5 255.5,453.5C 267.969,461.726 281.635,467.226 296.5,470C 305.804,471.067 315.138,471.567 324.5,471.5C 321.233,473.811 317.9,476.144 314.5,478.5C 324.287,478.127 333.287,475.127 341.5,469.5C 342.097,470.139 342.93,470.472 344,470.5C 350.841,469.098 357.674,467.765 364.5,466.5C 363.251,468.67 362.251,471.004 361.5,473.5C 362.127,475.787 363.46,477.454 365.5,478.5C 351.015,481.736 336.349,483.903 321.5,485C 297.468,485.072 273.468,485.739 249.5,487C 241.095,488.274 234.762,492.44 230.5,499.5C 225.276,498.347 219.942,497.68 214.5,497.5C 205.678,498.914 196.845,500.247 188,501.5C 185.5,501.333 183,501.167 180.5,501C 168.341,495.589 155.674,494.089 142.5,496.5C 135.746,496.259 132.912,492.926 134,486.5C 135.731,484.383 137.898,482.883 140.5,482C 147.771,480.818 155.104,480.151 162.5,480C 167.5,476.333 172.5,472.667 177.5,469C 182.911,466.451 188.577,465.451 194.5,466C 196.497,467.193 198.164,468.693 199.5,470.5C 200.568,471.434 201.901,471.768 203.5,471.5C 198.912,455.64 199.912,440.14 206.5,425C 206.167,424.5 205.833,424 205.5,423.5C 196.698,432.426 192.365,443.093 192.5,455.5C 189.519,443.605 190.352,431.938 195,420.5C 201.421,406.931 209.921,394.931 220.5,384.5 Z"/></g>
<g><path style="opacity:1" fill="#f9f7d9" d="M 296.5,392.5 C 309.61,396.298 322.943,397.631 336.5,396.5C 337.32,398.14 338.153,399.807 339,401.5C 339.678,406.572 340.678,411.572 342,416.5C 343.145,419.477 345.312,421.144 348.5,421.5C 351.287,420.356 354.12,419.356 357,418.5C 362.436,421.384 368.102,423.717 374,425.5C 376.045,440.499 372.878,454.165 364.5,466.5C 357.674,467.765 350.841,469.098 344,470.5C 342.93,470.472 342.097,470.139 341.5,469.5C 358.125,461.234 366.292,447.901 366,429.5C 365.359,427.187 364.026,425.52 362,424.5C 361.228,424.645 360.561,424.978 360,425.5C 355.574,441.266 347.074,454.433 334.5,465C 331.28,467.437 327.947,469.603 324.5,471.5C 315.138,471.567 305.804,471.067 296.5,470C 281.635,467.226 267.969,461.726 255.5,453.5C 257.927,444.721 261.427,436.387 266,428.5C 274.998,415.501 285.165,403.501 296.5,392.5 Z"/></g>
<g><path style="opacity:1" fill="#faf9e2" d="M 316.5,405.5 C 320.961,406.69 325.294,408.19 329.5,410C 331.209,411.916 332.543,414.082 333.5,416.5C 332.746,419.777 332.246,423.11 332,426.5C 330.025,427.478 328.358,428.811 327,430.5C 325.699,430.04 324.366,429.706 323,429.5C 320.667,430.5 318.333,431.5 316,432.5C 310.939,429.594 305.439,428.094 299.5,428C 297.262,425.896 296.262,423.562 296.5,421C 291.948,419.37 287.448,417.536 283,415.5C 282.202,413.741 282.369,412.074 283.5,410.5C 285.059,409.926 286.559,409.26 288,408.5C 288.308,409.308 288.808,409.975 289.5,410.5C 289.489,409.559 289.989,408.892 291,408.5C 294.133,408.526 297.3,408.86 300.5,409.5C 306.028,408.437 311.361,407.104 316.5,405.5 Z"/></g>
<g><path style="opacity:1" fill="#f5cad3" d="M 341.5,469.5 C 333.287,475.127 324.287,478.127 314.5,478.5C 317.9,476.144 321.233,473.811 324.5,471.5C 327.947,469.603 331.28,467.437 334.5,465C 347.074,454.433 355.574,441.266 360,425.5C 360.561,424.978 361.228,424.645 362,424.5C 364.026,425.52 365.359,427.187 366,429.5C 366.292,447.901 358.125,461.234 341.5,469.5 Z"/></g>
<g><path style="opacity:1" fill="#f2bbc6" d="M 199.5,470.5 C 199.938,470.565 200.272,470.399 200.5,470C 197.613,465.263 194.947,460.43 192.5,455.5C 192.365,443.093 196.698,432.426 205.5,423.5C 205.833,424 206.167,424.5 206.5,425C 199.912,440.14 198.912,455.64 203.5,471.5C 201.901,471.768 200.568,471.434 199.5,470.5 Z"/></g>
<g><path style="opacity:1" fill="#f2b9c4" d="M 244.5,446.5 C 248.192,448.344 251.525,450.677 254.5,453.5C 254.041,460.512 253.374,467.512 252.5,474.5C 244.957,466.602 242.291,457.268 244.5,446.5 Z"/></g>
<g><path style="opacity:1" fill="#f9f6d8" d="M 371.5,480.5 C 376.451,481.228 381.451,481.728 386.5,482C 392.543,483.697 394.71,487.531 393,493.5C 389.628,496.269 385.795,498.102 381.5,499C 370.862,498.229 360.196,497.896 349.5,498C 340.694,501.992 331.527,504.492 322,505.5C 310.512,504.269 299.179,502.269 288,499.5C 277.7,501.383 267.366,503.05 257,504.5C 248.951,504.266 241.118,502.933 233.5,500.5C 233.389,499.883 233.056,499.383 232.5,499C 238.086,492.842 245.086,489.508 253.5,489C 279.805,487.532 306.139,486.532 332.5,486C 344.231,484.491 355.898,482.658 367.5,480.5C 367.238,481.978 367.571,483.311 368.5,484.5C 368.109,483.282 368.776,482.448 370.5,482C 368.068,480.913 368.402,480.413 371.5,480.5 Z"/></g>
<g><path style="opacity:1" fill="#f9edd8" d="M 365.5,478.5 C 367.698,478.875 369.698,479.542 371.5,480.5C 368.402,480.413 368.068,480.913 370.5,482C 368.776,482.448 368.109,483.282 368.5,484.5C 367.571,483.311 367.238,481.978 367.5,480.5C 355.898,482.658 344.231,484.491 332.5,486C 306.139,486.532 279.805,487.532 253.5,489C 245.086,489.508 238.086,492.842 232.5,499C 233.056,499.383 233.389,499.883 233.5,500.5C 232.391,500.443 231.391,500.11 230.5,499.5C 234.762,492.44 241.095,488.274 249.5,487C 273.468,485.739 297.468,485.072 321.5,485C 336.349,483.903 351.015,481.736 365.5,478.5 Z"/></g>
</svg>
